<?xml version="1.0" encoding="UTF-8"?>
<!DOCTYPE svg PUBLIC "-//W3C//DTD SVG 1.1//EN" "http://www.w3.org/Graphics/SVG/1.1/DTD/svg11.dtd">
<svg version="1.1" xmlns="http://www.w3.org/2000/svg" xmlns:xlink="http://www.w3.org/1999/xlink" x="0" y="0" width="512" height="499.393" viewBox="0, 0, 512, 499.393">
  <g id="Background">
    <rect x="0" y="0" width="512" height="499.393" fill="#000000" fill-opacity="0"/>
  </g>
  <g id="Capa_1">
    <path d="M261.954,0 L445.462,441.259 L445.462,440.558 Q455.269,462.274 470.678,471.379 Q486.087,480.485 500.096,480.485 L512,480.482 L512,498.693 L346.003,498.693 L346.003,480.482 L357.91,480.482 Q367.018,480.485 374.022,474.882 Q381.025,469.278 381.025,458.072 Q381.025,451.768 378.925,445.464 L250.046,102.96 L115.567,446.161 L115.567,445.461 Q113.469,453.169 113.469,458.072 Q113.469,469.278 120.823,475.232 Q128.177,481.185 137.283,481.185 L149.187,481.182 L149.187,499.393 L0,499.393 L0,481.182 L11.907,481.182 Q25.918,481.185 41.327,472.08 Q56.736,462.975 66.541,441.962 L65.839,441.958 L221.329,74.244 Q228.336,58.838 233.94,44.83 Q238.842,32.923 242.694,20.315 Q246.547,7.708 246.547,0.003 L261.954,0 z" fill="#000000"/>
  </g>
</svg>
