<?xml version="1.0" encoding="UTF-8"?>
<!DOCTYPE svg PUBLIC "-//W3C//DTD SVG 1.1//EN" "http://www.w3.org/Graphics/SVG/1.1/DTD/svg11.dtd">
<svg version="1.1" xmlns="http://www.w3.org/2000/svg" xmlns:xlink="http://www.w3.org/1999/xlink" x="0" y="0" width="1500" height="250" viewBox="0, 0, 1500, 250">
  <g id="Background">
    <rect x="0" y="0" width="1500" height="250" fill="#000000" fill-opacity="0"/>
  </g>
  <defs>
    <linearGradient id="Gradient_1" gradientUnits="userSpaceOnUse" x1="-0" y1="125" x2="1500" y2="125">
      <stop offset="0" stop-color="#6D6E71"/>
      <stop offset="0.076" stop-color="#C4C6C8"/>
      <stop offset="0.441" stop-color="#5A5B5D"/>
      <stop offset="0.593" stop-color="#95979A"/>
      <stop offset="0.809" stop-color="#DADBDC"/>
      <stop offset="1" stop-color="#4D4D4F"/>
    </linearGradient>
    <linearGradient id="Gradient_2" gradientUnits="userSpaceOnUse" x1="-13.548" y1="233.234" x2="1514.642" y2="233.234">
      <stop offset="0" stop-color="#636466"/>
      <stop offset="0.117" stop-color="#CDCFD0"/>
      <stop offset="0.441" stop-color="#67686B"/>
      <stop offset="0.593" stop-color="#A1A3A6"/>
      <stop offset="0.809" stop-color="#E6E7E8"/>
      <stop offset="1" stop-color="#58595B"/>
    </linearGradient>
    <linearGradient id="Gradient_3" gradientUnits="userSpaceOnUse" x1="-13.548" y1="231.58" x2="1514.642" y2="231.58">
      <stop offset="0" stop-color="#636466"/>
      <stop offset="0.117" stop-color="#CDCFD0"/>
      <stop offset="0.441" stop-color="#67686B"/>
      <stop offset="0.593" stop-color="#A1A3A6"/>
      <stop offset="0.809" stop-color="#E6E7E8"/>
      <stop offset="1" stop-color="#58595B"/>
    </linearGradient>
    <linearGradient id="Gradient_4" gradientUnits="userSpaceOnUse" x1="-13.548" y1="230.78" x2="1514.642" y2="230.78">
      <stop offset="0" stop-color="#636466"/>
      <stop offset="0.117" stop-color="#CDCFD0"/>
      <stop offset="0.441" stop-color="#67686B"/>
      <stop offset="0.593" stop-color="#A1A3A6"/>
      <stop offset="0.809" stop-color="#E6E7E8"/>
      <stop offset="1" stop-color="#58595B"/>
    </linearGradient>
    <linearGradient id="Gradient_5" gradientUnits="userSpaceOnUse" x1="-13.548" y1="225.606" x2="1514.642" y2="225.606">
      <stop offset="0" stop-color="#636466"/>
      <stop offset="0.117" stop-color="#CDCFD0"/>
      <stop offset="0.441" stop-color="#67686B"/>
      <stop offset="0.593" stop-color="#A1A3A6"/>
      <stop offset="0.809" stop-color="#E6E7E8"/>
      <stop offset="1" stop-color="#58595B"/>
    </linearGradient>
    <linearGradient id="Gradient_6" gradientUnits="userSpaceOnUse" x1="-13.544" y1="226.738" x2="1514.646" y2="226.738">
      <stop offset="0" stop-color="#636466"/>
      <stop offset="0.117" stop-color="#CDCFD0"/>
      <stop offset="0.441" stop-color="#67686B"/>
      <stop offset="0.593" stop-color="#A1A3A6"/>
      <stop offset="0.809" stop-color="#E6E7E8"/>
      <stop offset="1" stop-color="#58595B"/>
    </linearGradient>
    <linearGradient id="Gradient_7" gradientUnits="userSpaceOnUse" x1="-13.548" y1="222.904" x2="1514.642" y2="222.904">
      <stop offset="0" stop-color="#636466"/>
      <stop offset="0.117" stop-color="#CDCFD0"/>
      <stop offset="0.441" stop-color="#67686B"/>
      <stop offset="0.593" stop-color="#A1A3A6"/>
      <stop offset="0.809" stop-color="#E6E7E8"/>
      <stop offset="1" stop-color="#58595B"/>
    </linearGradient>
    <linearGradient id="Gradient_8" gradientUnits="userSpaceOnUse" x1="-13.548" y1="238.954" x2="1514.642" y2="238.954">
      <stop offset="0" stop-color="#636466"/>
      <stop offset="0.117" stop-color="#CDCFD0"/>
      <stop offset="0.441" stop-color="#67686B"/>
      <stop offset="0.593" stop-color="#A1A3A6"/>
      <stop offset="0.809" stop-color="#E6E7E8"/>
      <stop offset="1" stop-color="#58595B"/>
    </linearGradient>
    <linearGradient id="Gradient_9" gradientUnits="userSpaceOnUse" x1="-13.55" y1="235.448" x2="1514.64" y2="235.448">
      <stop offset="0" stop-color="#636466"/>
      <stop offset="0.117" stop-color="#CDCFD0"/>
      <stop offset="0.441" stop-color="#67686B"/>
      <stop offset="0.593" stop-color="#A1A3A6"/>
      <stop offset="0.809" stop-color="#E6E7E8"/>
      <stop offset="1" stop-color="#58595B"/>
    </linearGradient>
    <linearGradient id="Gradient_10" gradientUnits="userSpaceOnUse" x1="-13.548" y1="236.85" x2="1514.642" y2="236.85">
      <stop offset="0" stop-color="#636466"/>
      <stop offset="0.117" stop-color="#CDCFD0"/>
      <stop offset="0.441" stop-color="#67686B"/>
      <stop offset="0.593" stop-color="#A1A3A6"/>
      <stop offset="0.809" stop-color="#E6E7E8"/>
      <stop offset="1" stop-color="#58595B"/>
    </linearGradient>
    <linearGradient id="Gradient_11" gradientUnits="userSpaceOnUse" x1="-13.548" y1="238.964" x2="1514.632" y2="238.964">
      <stop offset="0" stop-color="#636466"/>
      <stop offset="0.117" stop-color="#CDCFD0"/>
      <stop offset="0.441" stop-color="#67686B"/>
      <stop offset="0.593" stop-color="#A1A3A6"/>
      <stop offset="0.809" stop-color="#E6E7E8"/>
      <stop offset="1" stop-color="#58595B"/>
    </linearGradient>
    <linearGradient id="Gradient_12" gradientUnits="userSpaceOnUse" x1="-13.548" y1="198.89" x2="1514.642" y2="198.89">
      <stop offset="0" stop-color="#636466"/>
      <stop offset="0.117" stop-color="#CDCFD0"/>
      <stop offset="0.441" stop-color="#67686B"/>
      <stop offset="0.593" stop-color="#A1A3A6"/>
      <stop offset="0.809" stop-color="#E6E7E8"/>
      <stop offset="1" stop-color="#58595B"/>
    </linearGradient>
    <linearGradient id="Gradient_13" gradientUnits="userSpaceOnUse" x1="-13.547" y1="191.742" x2="1514.643" y2="191.742">
      <stop offset="0" stop-color="#636466"/>
      <stop offset="0.117" stop-color="#CDCFD0"/>
      <stop offset="0.441" stop-color="#67686B"/>
      <stop offset="0.593" stop-color="#A1A3A6"/>
      <stop offset="0.809" stop-color="#E6E7E8"/>
      <stop offset="1" stop-color="#58595B"/>
    </linearGradient>
    <linearGradient id="Gradient_14" gradientUnits="userSpaceOnUse" x1="-13.548" y1="199.867" x2="1514.633" y2="199.867">
      <stop offset="0" stop-color="#636466"/>
      <stop offset="0.117" stop-color="#CDCFD0"/>
      <stop offset="0.441" stop-color="#67686B"/>
      <stop offset="0.593" stop-color="#A1A3A6"/>
      <stop offset="0.809" stop-color="#E6E7E8"/>
      <stop offset="1" stop-color="#58595B"/>
    </linearGradient>
    <linearGradient id="Gradient_15" gradientUnits="userSpaceOnUse" x1="-13.548" y1="194.472" x2="1514.642" y2="194.472">
      <stop offset="0" stop-color="#636466"/>
      <stop offset="0.117" stop-color="#CDCFD0"/>
      <stop offset="0.441" stop-color="#67686B"/>
      <stop offset="0.593" stop-color="#A1A3A6"/>
      <stop offset="0.809" stop-color="#E6E7E8"/>
      <stop offset="1" stop-color="#58595B"/>
    </linearGradient>
    <linearGradient id="Gradient_16" gradientUnits="userSpaceOnUse" x1="-13.548" y1="189.149" x2="1514.642" y2="189.149">
      <stop offset="0" stop-color="#636466"/>
      <stop offset="0.117" stop-color="#CDCFD0"/>
      <stop offset="0.441" stop-color="#67686B"/>
      <stop offset="0.593" stop-color="#A1A3A6"/>
      <stop offset="0.809" stop-color="#E6E7E8"/>
      <stop offset="1" stop-color="#58595B"/>
    </linearGradient>
    <linearGradient id="Gradient_17" gradientUnits="userSpaceOnUse" x1="-13.546" y1="220.384" x2="1514.644" y2="220.384">
      <stop offset="0" stop-color="#636466"/>
      <stop offset="0.117" stop-color="#CDCFD0"/>
      <stop offset="0.441" stop-color="#67686B"/>
      <stop offset="0.593" stop-color="#A1A3A6"/>
      <stop offset="0.809" stop-color="#E6E7E8"/>
      <stop offset="1" stop-color="#58595B"/>
    </linearGradient>
    <linearGradient id="Gradient_18" gradientUnits="userSpaceOnUse" x1="-13.546" y1="190.863" x2="1514.644" y2="190.863">
      <stop offset="0" stop-color="#636466"/>
      <stop offset="0.117" stop-color="#CDCFD0"/>
      <stop offset="0.441" stop-color="#67686B"/>
      <stop offset="0.593" stop-color="#A1A3A6"/>
      <stop offset="0.809" stop-color="#E6E7E8"/>
      <stop offset="1" stop-color="#58595B"/>
    </linearGradient>
    <linearGradient id="Gradient_19" gradientUnits="userSpaceOnUse" x1="-13.548" y1="195.881" x2="1514.642" y2="195.881">
      <stop offset="0" stop-color="#636466"/>
      <stop offset="0.117" stop-color="#CDCFD0"/>
      <stop offset="0.441" stop-color="#67686B"/>
      <stop offset="0.593" stop-color="#A1A3A6"/>
      <stop offset="0.809" stop-color="#E6E7E8"/>
      <stop offset="1" stop-color="#58595B"/>
    </linearGradient>
    <linearGradient id="Gradient_20" gradientUnits="userSpaceOnUse" x1="-13.548" y1="187.224" x2="1514.642" y2="187.224">
      <stop offset="0" stop-color="#636466"/>
      <stop offset="0.117" stop-color="#CDCFD0"/>
      <stop offset="0.441" stop-color="#67686B"/>
      <stop offset="0.593" stop-color="#A1A3A6"/>
      <stop offset="0.809" stop-color="#E6E7E8"/>
      <stop offset="1" stop-color="#58595B"/>
    </linearGradient>
    <linearGradient id="Gradient_21" gradientUnits="userSpaceOnUse" x1="-13.547" y1="218.238" x2="1514.643" y2="218.238">
      <stop offset="0" stop-color="#636466"/>
      <stop offset="0.117" stop-color="#CDCFD0"/>
      <stop offset="0.441" stop-color="#67686B"/>
      <stop offset="0.593" stop-color="#A1A3A6"/>
      <stop offset="0.809" stop-color="#E6E7E8"/>
      <stop offset="1" stop-color="#58595B"/>
    </linearGradient>
    <linearGradient id="Gradient_22" gradientUnits="userSpaceOnUse" x1="-13.548" y1="215.329" x2="1514.652" y2="215.329">
      <stop offset="0" stop-color="#636466"/>
      <stop offset="0.117" stop-color="#CDCFD0"/>
      <stop offset="0.441" stop-color="#67686B"/>
      <stop offset="0.593" stop-color="#A1A3A6"/>
      <stop offset="0.809" stop-color="#E6E7E8"/>
      <stop offset="1" stop-color="#58595B"/>
    </linearGradient>
    <linearGradient id="Gradient_23" gradientUnits="userSpaceOnUse" x1="-13.548" y1="196.399" x2="1514.642" y2="196.399">
      <stop offset="0" stop-color="#636466"/>
      <stop offset="0.117" stop-color="#CDCFD0"/>
      <stop offset="0.441" stop-color="#67686B"/>
      <stop offset="0.593" stop-color="#A1A3A6"/>
      <stop offset="0.809" stop-color="#E6E7E8"/>
      <stop offset="1" stop-color="#58595B"/>
    </linearGradient>
    <linearGradient id="Gradient_24" gradientUnits="userSpaceOnUse" x1="-13.548" y1="205.045" x2="1514.642" y2="205.045">
      <stop offset="0" stop-color="#636466"/>
      <stop offset="0.117" stop-color="#CDCFD0"/>
      <stop offset="0.441" stop-color="#67686B"/>
      <stop offset="0.593" stop-color="#A1A3A6"/>
      <stop offset="0.809" stop-color="#E6E7E8"/>
      <stop offset="1" stop-color="#58595B"/>
    </linearGradient>
    <linearGradient id="Gradient_25" gradientUnits="userSpaceOnUse" x1="-13.548" y1="213.885" x2="1514.642" y2="213.885">
      <stop offset="0" stop-color="#636466"/>
      <stop offset="0.117" stop-color="#CDCFD0"/>
      <stop offset="0.441" stop-color="#67686B"/>
      <stop offset="0.593" stop-color="#A1A3A6"/>
      <stop offset="0.809" stop-color="#E6E7E8"/>
      <stop offset="1" stop-color="#58595B"/>
    </linearGradient>
    <linearGradient id="Gradient_26" gradientUnits="userSpaceOnUse" x1="-13.548" y1="211.582" x2="1514.642" y2="211.582">
      <stop offset="0" stop-color="#636466"/>
      <stop offset="0.117" stop-color="#CDCFD0"/>
      <stop offset="0.441" stop-color="#67686B"/>
      <stop offset="0.593" stop-color="#A1A3A6"/>
      <stop offset="0.809" stop-color="#E6E7E8"/>
      <stop offset="1" stop-color="#58595B"/>
    </linearGradient>
    <linearGradient id="Gradient_27" gradientUnits="userSpaceOnUse" x1="-13.548" y1="218.74" x2="1514.642" y2="218.74">
      <stop offset="0" stop-color="#636466"/>
      <stop offset="0.117" stop-color="#CDCFD0"/>
      <stop offset="0.441" stop-color="#67686B"/>
      <stop offset="0.593" stop-color="#A1A3A6"/>
      <stop offset="0.809" stop-color="#E6E7E8"/>
      <stop offset="1" stop-color="#58595B"/>
    </linearGradient>
    <linearGradient id="Gradient_28" gradientUnits="userSpaceOnUse" x1="-13.548" y1="89.794" x2="1514.642" y2="89.794">
      <stop offset="0" stop-color="#636466"/>
      <stop offset="0.117" stop-color="#CDCFD0"/>
      <stop offset="0.441" stop-color="#67686B"/>
      <stop offset="0.593" stop-color="#A1A3A6"/>
      <stop offset="0.809" stop-color="#E6E7E8"/>
      <stop offset="1" stop-color="#58595B"/>
    </linearGradient>
    <linearGradient id="Gradient_29" gradientUnits="userSpaceOnUse" x1="-13.548" y1="72.304" x2="1514.642" y2="72.304">
      <stop offset="0" stop-color="#636466"/>
      <stop offset="0.117" stop-color="#CDCFD0"/>
      <stop offset="0.441" stop-color="#67686B"/>
      <stop offset="0.593" stop-color="#A1A3A6"/>
      <stop offset="0.809" stop-color="#E6E7E8"/>
      <stop offset="1" stop-color="#58595B"/>
    </linearGradient>
    <linearGradient id="Gradient_30" gradientUnits="userSpaceOnUse" x1="-13.548" y1="61.28" x2="1514.642" y2="61.28">
      <stop offset="0" stop-color="#636466"/>
      <stop offset="0.117" stop-color="#CDCFD0"/>
      <stop offset="0.441" stop-color="#67686B"/>
      <stop offset="0.593" stop-color="#A1A3A6"/>
      <stop offset="0.809" stop-color="#E6E7E8"/>
      <stop offset="1" stop-color="#58595B"/>
    </linearGradient>
    <linearGradient id="Gradient_31" gradientUnits="userSpaceOnUse" x1="-13.548" y1="121.536" x2="1514.642" y2="121.536">
      <stop offset="0" stop-color="#636466"/>
      <stop offset="0.117" stop-color="#CDCFD0"/>
      <stop offset="0.441" stop-color="#67686B"/>
      <stop offset="0.593" stop-color="#A1A3A6"/>
      <stop offset="0.809" stop-color="#E6E7E8"/>
      <stop offset="1" stop-color="#58595B"/>
    </linearGradient>
    <linearGradient id="Gradient_32" gradientUnits="userSpaceOnUse" x1="-13.548" y1="118.267" x2="1514.642" y2="118.267">
      <stop offset="0" stop-color="#636466"/>
      <stop offset="0.117" stop-color="#CDCFD0"/>
      <stop offset="0.441" stop-color="#67686B"/>
      <stop offset="0.593" stop-color="#A1A3A6"/>
      <stop offset="0.809" stop-color="#E6E7E8"/>
      <stop offset="1" stop-color="#58595B"/>
    </linearGradient>
    <linearGradient id="Gradient_33" gradientUnits="userSpaceOnUse" x1="-13.548" y1="97.652" x2="1514.642" y2="97.652">
      <stop offset="0" stop-color="#636466"/>
      <stop offset="0.117" stop-color="#CDCFD0"/>
      <stop offset="0.441" stop-color="#67686B"/>
      <stop offset="0.593" stop-color="#A1A3A6"/>
      <stop offset="0.809" stop-color="#E6E7E8"/>
      <stop offset="1" stop-color="#58595B"/>
    </linearGradient>
    <linearGradient id="Gradient_34" gradientUnits="userSpaceOnUse" x1="-13.548" y1="105.485" x2="1514.642" y2="105.485">
      <stop offset="0" stop-color="#636466"/>
      <stop offset="0.117" stop-color="#CDCFD0"/>
      <stop offset="0.441" stop-color="#67686B"/>
      <stop offset="0.593" stop-color="#A1A3A6"/>
      <stop offset="0.809" stop-color="#E6E7E8"/>
      <stop offset="1" stop-color="#58595B"/>
    </linearGradient>
    <linearGradient id="Gradient_35" gradientUnits="userSpaceOnUse" x1="-13.548" y1="65.862" x2="1514.642" y2="65.862">
      <stop offset="0" stop-color="#636466"/>
      <stop offset="0.117" stop-color="#CDCFD0"/>
      <stop offset="0.441" stop-color="#67686B"/>
      <stop offset="0.593" stop-color="#A1A3A6"/>
      <stop offset="0.809" stop-color="#E6E7E8"/>
      <stop offset="1" stop-color="#58595B"/>
    </linearGradient>
    <linearGradient id="Gradient_36" gradientUnits="userSpaceOnUse" x1="-13.547" y1="54.031" x2="1514.643" y2="54.031">
      <stop offset="0" stop-color="#636466"/>
      <stop offset="0.117" stop-color="#CDCFD0"/>
      <stop offset="0.441" stop-color="#67686B"/>
      <stop offset="0.593" stop-color="#A1A3A6"/>
      <stop offset="0.809" stop-color="#E6E7E8"/>
      <stop offset="1" stop-color="#58595B"/>
    </linearGradient>
    <linearGradient id="Gradient_37" gradientUnits="userSpaceOnUse" x1="-13.548" y1="38.848" x2="1514.642" y2="38.848">
      <stop offset="0" stop-color="#636466"/>
      <stop offset="0.117" stop-color="#CDCFD0"/>
      <stop offset="0.441" stop-color="#67686B"/>
      <stop offset="0.593" stop-color="#A1A3A6"/>
      <stop offset="0.809" stop-color="#E6E7E8"/>
      <stop offset="1" stop-color="#58595B"/>
    </linearGradient>
    <linearGradient id="Gradient_38" gradientUnits="userSpaceOnUse" x1="-13.548" y1="8.936" x2="1514.642" y2="8.936">
      <stop offset="0" stop-color="#636466"/>
      <stop offset="0.117" stop-color="#CDCFD0"/>
      <stop offset="0.441" stop-color="#67686B"/>
      <stop offset="0.593" stop-color="#A1A3A6"/>
      <stop offset="0.809" stop-color="#E6E7E8"/>
      <stop offset="1" stop-color="#58595B"/>
    </linearGradient>
    <linearGradient id="Gradient_39" gradientUnits="userSpaceOnUse" x1="-13.548" y1="27.524" x2="1514.642" y2="27.524">
      <stop offset="0" stop-color="#636466"/>
      <stop offset="0.117" stop-color="#CDCFD0"/>
      <stop offset="0.441" stop-color="#67686B"/>
      <stop offset="0.593" stop-color="#A1A3A6"/>
      <stop offset="0.809" stop-color="#E6E7E8"/>
      <stop offset="1" stop-color="#58595B"/>
    </linearGradient>
    <linearGradient id="Gradient_40" gradientUnits="userSpaceOnUse" x1="-13.547" y1="45.385" x2="1514.643" y2="45.385">
      <stop offset="0" stop-color="#636466"/>
      <stop offset="0.117" stop-color="#CDCFD0"/>
      <stop offset="0.441" stop-color="#67686B"/>
      <stop offset="0.593" stop-color="#A1A3A6"/>
      <stop offset="0.809" stop-color="#E6E7E8"/>
      <stop offset="1" stop-color="#58595B"/>
    </linearGradient>
    <linearGradient id="Gradient_41" gradientUnits="userSpaceOnUse" x1="-13.509" y1="49.106" x2="1514.611" y2="49.106">
      <stop offset="0" stop-color="#636466"/>
      <stop offset="0.117" stop-color="#CDCFD0"/>
      <stop offset="0.441" stop-color="#67686B"/>
      <stop offset="0.593" stop-color="#A1A3A6"/>
      <stop offset="0.809" stop-color="#E6E7E8"/>
      <stop offset="1" stop-color="#58595B"/>
    </linearGradient>
    <linearGradient id="Gradient_42" gradientUnits="userSpaceOnUse" x1="-13.548" y1="45.231" x2="1514.642" y2="45.231">
      <stop offset="0" stop-color="#636466"/>
      <stop offset="0.117" stop-color="#CDCFD0"/>
      <stop offset="0.441" stop-color="#67686B"/>
      <stop offset="0.593" stop-color="#A1A3A6"/>
      <stop offset="0.809" stop-color="#E6E7E8"/>
      <stop offset="1" stop-color="#58595B"/>
    </linearGradient>
    <linearGradient id="Gradient_43" gradientUnits="userSpaceOnUse" x1="-13.548" y1="201.226" x2="1514.642" y2="201.226">
      <stop offset="0" stop-color="#636466"/>
      <stop offset="0.117" stop-color="#CDCFD0"/>
      <stop offset="0.441" stop-color="#67686B"/>
      <stop offset="0.593" stop-color="#A1A3A6"/>
      <stop offset="0.809" stop-color="#E6E7E8"/>
      <stop offset="1" stop-color="#58595B"/>
    </linearGradient>
    <linearGradient id="Gradient_44" gradientUnits="userSpaceOnUse" x1="-13.546" y1="201.325" x2="1514.644" y2="201.325">
      <stop offset="0" stop-color="#636466"/>
      <stop offset="0.117" stop-color="#CDCFD0"/>
      <stop offset="0.441" stop-color="#67686B"/>
      <stop offset="0.593" stop-color="#A1A3A6"/>
      <stop offset="0.809" stop-color="#E6E7E8"/>
      <stop offset="1" stop-color="#58595B"/>
    </linearGradient>
    <linearGradient id="Gradient_45" gradientUnits="userSpaceOnUse" x1="-13.548" y1="184.568" x2="1514.642" y2="184.568">
      <stop offset="0" stop-color="#636466"/>
      <stop offset="0.117" stop-color="#CDCFD0"/>
      <stop offset="0.441" stop-color="#67686B"/>
      <stop offset="0.593" stop-color="#A1A3A6"/>
      <stop offset="0.809" stop-color="#E6E7E8"/>
      <stop offset="1" stop-color="#58595B"/>
    </linearGradient>
    <linearGradient id="Gradient_46" gradientUnits="userSpaceOnUse" x1="-13.548" y1="205.198" x2="1514.642" y2="205.198">
      <stop offset="0" stop-color="#636466"/>
      <stop offset="0.117" stop-color="#CDCFD0"/>
      <stop offset="0.441" stop-color="#67686B"/>
      <stop offset="0.593" stop-color="#A1A3A6"/>
      <stop offset="0.809" stop-color="#E6E7E8"/>
      <stop offset="1" stop-color="#58595B"/>
    </linearGradient>
    <linearGradient id="Gradient_47" gradientUnits="userSpaceOnUse" x1="-13.548" y1="178.127" x2="1514.642" y2="178.127">
      <stop offset="0" stop-color="#636466"/>
      <stop offset="0.117" stop-color="#CDCFD0"/>
      <stop offset="0.441" stop-color="#67686B"/>
      <stop offset="0.593" stop-color="#A1A3A6"/>
      <stop offset="0.809" stop-color="#E6E7E8"/>
      <stop offset="1" stop-color="#58595B"/>
    </linearGradient>
    <linearGradient id="Gradient_48" gradientUnits="userSpaceOnUse" x1="-13.548" y1="228.483" x2="1514.642" y2="228.483">
      <stop offset="0" stop-color="#636466"/>
      <stop offset="0.117" stop-color="#CDCFD0"/>
      <stop offset="0.441" stop-color="#67686B"/>
      <stop offset="0.593" stop-color="#A1A3A6"/>
      <stop offset="0.809" stop-color="#E6E7E8"/>
      <stop offset="1" stop-color="#58595B"/>
    </linearGradient>
    <linearGradient id="Gradient_49" gradientUnits="userSpaceOnUse" x1="-13.55" y1="130.731" x2="1514.64" y2="130.731">
      <stop offset="0" stop-color="#636466"/>
      <stop offset="0.117" stop-color="#CDCFD0"/>
      <stop offset="0.441" stop-color="#67686B"/>
      <stop offset="0.593" stop-color="#A1A3A6"/>
      <stop offset="0.809" stop-color="#E6E7E8"/>
      <stop offset="1" stop-color="#58595B"/>
    </linearGradient>
    <linearGradient id="Gradient_50" gradientUnits="userSpaceOnUse" x1="-13.548" y1="129.4" x2="1514.642" y2="129.4">
      <stop offset="0" stop-color="#636466"/>
      <stop offset="0.117" stop-color="#CDCFD0"/>
      <stop offset="0.441" stop-color="#67686B"/>
      <stop offset="0.593" stop-color="#A1A3A6"/>
      <stop offset="0.809" stop-color="#E6E7E8"/>
      <stop offset="1" stop-color="#58595B"/>
    </linearGradient>
    <linearGradient id="Gradient_51" gradientUnits="userSpaceOnUse" x1="-13.548" y1="128.894" x2="1514.642" y2="128.894">
      <stop offset="0" stop-color="#636466"/>
      <stop offset="0.117" stop-color="#CDCFD0"/>
      <stop offset="0.441" stop-color="#67686B"/>
      <stop offset="0.593" stop-color="#A1A3A6"/>
      <stop offset="0.809" stop-color="#E6E7E8"/>
      <stop offset="1" stop-color="#58595B"/>
    </linearGradient>
    <linearGradient id="Gradient_52" gradientUnits="userSpaceOnUse" x1="-13.548" y1="169.346" x2="1514.642" y2="169.346">
      <stop offset="0" stop-color="#636466"/>
      <stop offset="0.117" stop-color="#CDCFD0"/>
      <stop offset="0.441" stop-color="#67686B"/>
      <stop offset="0.593" stop-color="#A1A3A6"/>
      <stop offset="0.809" stop-color="#E6E7E8"/>
      <stop offset="1" stop-color="#58595B"/>
    </linearGradient>
    <linearGradient id="Gradient_53" gradientUnits="userSpaceOnUse" x1="-13.548" y1="132.163" x2="1514.642" y2="132.163">
      <stop offset="0" stop-color="#636466"/>
      <stop offset="0.117" stop-color="#CDCFD0"/>
      <stop offset="0.441" stop-color="#67686B"/>
      <stop offset="0.593" stop-color="#A1A3A6"/>
      <stop offset="0.809" stop-color="#E6E7E8"/>
      <stop offset="1" stop-color="#58595B"/>
    </linearGradient>
    <linearGradient id="Gradient_54" gradientUnits="userSpaceOnUse" x1="-13.548" y1="156.154" x2="1514.642" y2="156.154">
      <stop offset="0" stop-color="#636466"/>
      <stop offset="0.117" stop-color="#CDCFD0"/>
      <stop offset="0.441" stop-color="#67686B"/>
      <stop offset="0.593" stop-color="#A1A3A6"/>
      <stop offset="0.809" stop-color="#E6E7E8"/>
      <stop offset="1" stop-color="#58595B"/>
    </linearGradient>
    <linearGradient id="Gradient_55" gradientUnits="userSpaceOnUse" x1="-13.548" y1="135.15" x2="1514.642" y2="135.15">
      <stop offset="0" stop-color="#636466"/>
      <stop offset="0.117" stop-color="#CDCFD0"/>
      <stop offset="0.441" stop-color="#67686B"/>
      <stop offset="0.593" stop-color="#A1A3A6"/>
      <stop offset="0.809" stop-color="#E6E7E8"/>
      <stop offset="1" stop-color="#58595B"/>
    </linearGradient>
    <linearGradient id="Gradient_56" gradientUnits="userSpaceOnUse" x1="-13.548" y1="144.945" x2="1514.642" y2="144.945">
      <stop offset="0" stop-color="#636466"/>
      <stop offset="0.117" stop-color="#CDCFD0"/>
      <stop offset="0.441" stop-color="#67686B"/>
      <stop offset="0.593" stop-color="#A1A3A6"/>
      <stop offset="0.809" stop-color="#E6E7E8"/>
      <stop offset="1" stop-color="#58595B"/>
    </linearGradient>
    <linearGradient id="Gradient_57" gradientUnits="userSpaceOnUse" x1="-13.545" y1="49.204" x2="1514.645" y2="49.204">
      <stop offset="0" stop-color="#636466"/>
      <stop offset="0.117" stop-color="#CDCFD0"/>
      <stop offset="0.441" stop-color="#67686B"/>
      <stop offset="0.593" stop-color="#A1A3A6"/>
      <stop offset="0.809" stop-color="#E6E7E8"/>
      <stop offset="1" stop-color="#58595B"/>
    </linearGradient>
    <linearGradient id="Gradient_58" gradientUnits="userSpaceOnUse" x1="-13.548" y1="36.542" x2="1514.642" y2="36.542">
      <stop offset="0" stop-color="#636466"/>
      <stop offset="0.117" stop-color="#CDCFD0"/>
      <stop offset="0.441" stop-color="#67686B"/>
      <stop offset="0.593" stop-color="#A1A3A6"/>
      <stop offset="0.809" stop-color="#E6E7E8"/>
      <stop offset="1" stop-color="#58595B"/>
    </linearGradient>
    <linearGradient id="Gradient_59" gradientUnits="userSpaceOnUse" x1="-13.552" y1="49.105" x2="1514.648" y2="49.105">
      <stop offset="0" stop-color="#636466"/>
      <stop offset="0.117" stop-color="#CDCFD0"/>
      <stop offset="0.441" stop-color="#67686B"/>
      <stop offset="0.593" stop-color="#A1A3A6"/>
      <stop offset="0.809" stop-color="#E6E7E8"/>
      <stop offset="1" stop-color="#58595B"/>
    </linearGradient>
    <linearGradient id="Gradient_60" gradientUnits="userSpaceOnUse" x1="-13.548" y1="74.674" x2="1514.642" y2="74.674">
      <stop offset="0" stop-color="#636466"/>
      <stop offset="0.117" stop-color="#CDCFD0"/>
      <stop offset="0.441" stop-color="#67686B"/>
      <stop offset="0.593" stop-color="#A1A3A6"/>
      <stop offset="0.809" stop-color="#E6E7E8"/>
      <stop offset="1" stop-color="#58595B"/>
    </linearGradient>
    <linearGradient id="Gradient_61" gradientUnits="userSpaceOnUse" x1="-13.551" y1="50.563" x2="1514.639" y2="50.563">
      <stop offset="0" stop-color="#636466"/>
      <stop offset="0.117" stop-color="#CDCFD0"/>
      <stop offset="0.441" stop-color="#67686B"/>
      <stop offset="0.593" stop-color="#A1A3A6"/>
      <stop offset="0.809" stop-color="#E6E7E8"/>
      <stop offset="1" stop-color="#58595B"/>
    </linearGradient>
    <linearGradient id="Gradient_62" gradientUnits="userSpaceOnUse" x1="-13.548" y1="35.101" x2="1514.642" y2="35.101">
      <stop offset="0" stop-color="#636466"/>
      <stop offset="0.117" stop-color="#CDCFD0"/>
      <stop offset="0.441" stop-color="#67686B"/>
      <stop offset="0.593" stop-color="#A1A3A6"/>
      <stop offset="0.809" stop-color="#E6E7E8"/>
      <stop offset="1" stop-color="#58595B"/>
    </linearGradient>
    <linearGradient id="Gradient_63" gradientUnits="userSpaceOnUse" x1="-13.548" y1="31.69" x2="1514.642" y2="31.69">
      <stop offset="0" stop-color="#636466"/>
      <stop offset="0.117" stop-color="#CDCFD0"/>
      <stop offset="0.441" stop-color="#67686B"/>
      <stop offset="0.593" stop-color="#A1A3A6"/>
      <stop offset="0.809" stop-color="#E6E7E8"/>
      <stop offset="1" stop-color="#58595B"/>
    </linearGradient>
    <linearGradient id="Gradient_64" gradientUnits="userSpaceOnUse" x1="-13.547" y1="69.096" x2="1514.643" y2="69.096">
      <stop offset="0" stop-color="#636466"/>
      <stop offset="0.117" stop-color="#CDCFD0"/>
      <stop offset="0.441" stop-color="#67686B"/>
      <stop offset="0.593" stop-color="#A1A3A6"/>
      <stop offset="0.809" stop-color="#E6E7E8"/>
      <stop offset="1" stop-color="#58595B"/>
    </linearGradient>
    <linearGradient id="Gradient_65" gradientUnits="userSpaceOnUse" x1="-13.547" y1="54.548" x2="1514.643" y2="54.548">
      <stop offset="0" stop-color="#636466"/>
      <stop offset="0.117" stop-color="#CDCFD0"/>
      <stop offset="0.441" stop-color="#67686B"/>
      <stop offset="0.593" stop-color="#A1A3A6"/>
      <stop offset="0.809" stop-color="#E6E7E8"/>
      <stop offset="1" stop-color="#58595B"/>
    </linearGradient>
    <linearGradient id="Gradient_66" gradientUnits="userSpaceOnUse" x1="-13.547" y1="55.957" x2="1514.643" y2="55.957">
      <stop offset="0" stop-color="#636466"/>
      <stop offset="0.117" stop-color="#CDCFD0"/>
      <stop offset="0.441" stop-color="#67686B"/>
      <stop offset="0.593" stop-color="#A1A3A6"/>
      <stop offset="0.809" stop-color="#E6E7E8"/>
      <stop offset="1" stop-color="#58595B"/>
    </linearGradient>
    <linearGradient id="Gradient_67" gradientUnits="userSpaceOnUse" x1="-13.548" y1="32.191" x2="1514.642" y2="32.191">
      <stop offset="0" stop-color="#636466"/>
      <stop offset="0.117" stop-color="#CDCFD0"/>
      <stop offset="0.441" stop-color="#67686B"/>
      <stop offset="0.593" stop-color="#A1A3A6"/>
      <stop offset="0.809" stop-color="#E6E7E8"/>
      <stop offset="1" stop-color="#58595B"/>
    </linearGradient>
    <linearGradient id="Gradient_68" gradientUnits="userSpaceOnUse" x1="-13.548" y1="63.205" x2="1514.642" y2="63.205">
      <stop offset="0" stop-color="#636466"/>
      <stop offset="0.117" stop-color="#CDCFD0"/>
      <stop offset="0.441" stop-color="#67686B"/>
      <stop offset="0.593" stop-color="#A1A3A6"/>
      <stop offset="0.809" stop-color="#E6E7E8"/>
      <stop offset="1" stop-color="#58595B"/>
    </linearGradient>
    <linearGradient id="Gradient_69" gradientUnits="userSpaceOnUse" x1="-13.548" y1="51.54" x2="1514.642" y2="51.54">
      <stop offset="0" stop-color="#636466"/>
      <stop offset="0.117" stop-color="#CDCFD0"/>
      <stop offset="0.441" stop-color="#67686B"/>
      <stop offset="0.593" stop-color="#A1A3A6"/>
      <stop offset="0.809" stop-color="#E6E7E8"/>
      <stop offset="1" stop-color="#58595B"/>
    </linearGradient>
    <linearGradient id="Gradient_70" gradientUnits="userSpaceOnUse" x1="-13.548" y1="58.688" x2="1514.642" y2="58.688">
      <stop offset="0" stop-color="#636466"/>
      <stop offset="0.117" stop-color="#CDCFD0"/>
      <stop offset="0.441" stop-color="#67686B"/>
      <stop offset="0.593" stop-color="#A1A3A6"/>
      <stop offset="0.809" stop-color="#E6E7E8"/>
      <stop offset="1" stop-color="#58595B"/>
    </linearGradient>
    <linearGradient id="Gradient_71" gradientUnits="userSpaceOnUse" x1="-13.548" y1="59.568" x2="1514.642" y2="59.568">
      <stop offset="0" stop-color="#636466"/>
      <stop offset="0.117" stop-color="#CDCFD0"/>
      <stop offset="0.441" stop-color="#67686B"/>
      <stop offset="0.593" stop-color="#A1A3A6"/>
      <stop offset="0.809" stop-color="#E6E7E8"/>
      <stop offset="1" stop-color="#58595B"/>
    </linearGradient>
    <linearGradient id="Gradient_72" gradientUnits="userSpaceOnUse" x1="-13.548" y1="30.046" x2="1514.642" y2="30.046">
      <stop offset="0" stop-color="#636466"/>
      <stop offset="0.117" stop-color="#CDCFD0"/>
      <stop offset="0.441" stop-color="#67686B"/>
      <stop offset="0.593" stop-color="#A1A3A6"/>
      <stop offset="0.809" stop-color="#E6E7E8"/>
      <stop offset="1" stop-color="#58595B"/>
    </linearGradient>
    <linearGradient id="Gradient_73" gradientUnits="userSpaceOnUse" x1="-13.548" y1="11.465" x2="1514.642" y2="11.465">
      <stop offset="0" stop-color="#636466"/>
      <stop offset="0.117" stop-color="#CDCFD0"/>
      <stop offset="0.441" stop-color="#67686B"/>
      <stop offset="0.593" stop-color="#A1A3A6"/>
      <stop offset="0.809" stop-color="#E6E7E8"/>
      <stop offset="1" stop-color="#58595B"/>
    </linearGradient>
    <linearGradient id="Gradient_74" gradientUnits="userSpaceOnUse" x1="-13.548" y1="8.061" x2="1514.642" y2="8.061">
      <stop offset="0" stop-color="#636466"/>
      <stop offset="0.117" stop-color="#CDCFD0"/>
      <stop offset="0.441" stop-color="#67686B"/>
      <stop offset="0.593" stop-color="#A1A3A6"/>
      <stop offset="0.809" stop-color="#E6E7E8"/>
      <stop offset="1" stop-color="#58595B"/>
    </linearGradient>
    <linearGradient id="Gradient_75" gradientUnits="userSpaceOnUse" x1="-13.548" y1="9.431" x2="1514.642" y2="9.431">
      <stop offset="0" stop-color="#636466"/>
      <stop offset="0.117" stop-color="#CDCFD0"/>
      <stop offset="0.441" stop-color="#67686B"/>
      <stop offset="0.593" stop-color="#A1A3A6"/>
      <stop offset="0.809" stop-color="#E6E7E8"/>
      <stop offset="1" stop-color="#58595B"/>
    </linearGradient>
    <linearGradient id="Gradient_76" gradientUnits="userSpaceOnUse" x1="-13.547" y1="11.476" x2="1514.643" y2="11.476">
      <stop offset="0" stop-color="#636466"/>
      <stop offset="0.117" stop-color="#CDCFD0"/>
      <stop offset="0.441" stop-color="#67686B"/>
      <stop offset="0.593" stop-color="#A1A3A6"/>
      <stop offset="0.809" stop-color="#E6E7E8"/>
      <stop offset="1" stop-color="#58595B"/>
    </linearGradient>
    <linearGradient id="Gradient_77" gradientUnits="userSpaceOnUse" x1="-13.549" y1="3.058" x2="1514.641" y2="3.058">
      <stop offset="0" stop-color="#636466"/>
      <stop offset="0.117" stop-color="#CDCFD0"/>
      <stop offset="0.441" stop-color="#67686B"/>
      <stop offset="0.593" stop-color="#A1A3A6"/>
      <stop offset="0.809" stop-color="#E6E7E8"/>
      <stop offset="1" stop-color="#58595B"/>
    </linearGradient>
    <linearGradient id="Gradient_78" gradientUnits="userSpaceOnUse" x1="-13.548" y1="0.759" x2="1514.642" y2="0.759">
      <stop offset="0" stop-color="#636466"/>
      <stop offset="0.117" stop-color="#CDCFD0"/>
      <stop offset="0.441" stop-color="#67686B"/>
      <stop offset="0.593" stop-color="#A1A3A6"/>
      <stop offset="0.809" stop-color="#E6E7E8"/>
      <stop offset="1" stop-color="#58595B"/>
    </linearGradient>
    <linearGradient id="Gradient_79" gradientUnits="userSpaceOnUse" x1="-13.548" y1="24.823" x2="1514.642" y2="24.823">
      <stop offset="0" stop-color="#636466"/>
      <stop offset="0.117" stop-color="#CDCFD0"/>
      <stop offset="0.441" stop-color="#67686B"/>
      <stop offset="0.593" stop-color="#A1A3A6"/>
      <stop offset="0.809" stop-color="#E6E7E8"/>
      <stop offset="1" stop-color="#58595B"/>
    </linearGradient>
    <linearGradient id="Gradient_80" gradientUnits="userSpaceOnUse" x1="-13.548" y1="5.234" x2="1514.642" y2="5.234">
      <stop offset="0" stop-color="#636466"/>
      <stop offset="0.117" stop-color="#CDCFD0"/>
      <stop offset="0.441" stop-color="#67686B"/>
      <stop offset="0.593" stop-color="#A1A3A6"/>
      <stop offset="0.809" stop-color="#E6E7E8"/>
      <stop offset="1" stop-color="#58595B"/>
    </linearGradient>
    <linearGradient id="Gradient_81" gradientUnits="userSpaceOnUse" x1="-13.548" y1="21.947" x2="1514.642" y2="21.947">
      <stop offset="0" stop-color="#636466"/>
      <stop offset="0.117" stop-color="#CDCFD0"/>
      <stop offset="0.441" stop-color="#67686B"/>
      <stop offset="0.593" stop-color="#A1A3A6"/>
      <stop offset="0.809" stop-color="#E6E7E8"/>
      <stop offset="1" stop-color="#58595B"/>
    </linearGradient>
    <linearGradient id="Gradient_82" gradientUnits="userSpaceOnUse" x1="-13.547" y1="19.65" x2="1514.642" y2="19.65">
      <stop offset="0" stop-color="#636466"/>
      <stop offset="0.117" stop-color="#CDCFD0"/>
      <stop offset="0.441" stop-color="#67686B"/>
      <stop offset="0.593" stop-color="#A1A3A6"/>
      <stop offset="0.809" stop-color="#E6E7E8"/>
      <stop offset="1" stop-color="#58595B"/>
    </linearGradient>
    <linearGradient id="Gradient_83" gradientUnits="userSpaceOnUse" x1="-13.548" y1="23.692" x2="1514.632" y2="23.692">
      <stop offset="0" stop-color="#636466"/>
      <stop offset="0.117" stop-color="#CDCFD0"/>
      <stop offset="0.441" stop-color="#67686B"/>
      <stop offset="0.593" stop-color="#A1A3A6"/>
      <stop offset="0.809" stop-color="#E6E7E8"/>
      <stop offset="1" stop-color="#58595B"/>
    </linearGradient>
    <linearGradient id="Gradient_84" gradientUnits="userSpaceOnUse" x1="-13.548" y1="17.196" x2="1514.642" y2="17.196">
      <stop offset="0" stop-color="#636466"/>
      <stop offset="0.117" stop-color="#CDCFD0"/>
      <stop offset="0.441" stop-color="#67686B"/>
      <stop offset="0.593" stop-color="#A1A3A6"/>
      <stop offset="0.809" stop-color="#E6E7E8"/>
      <stop offset="1" stop-color="#58595B"/>
    </linearGradient>
    <linearGradient id="Gradient_85" gradientUnits="userSpaceOnUse" x1="-13.547" y1="14.982" x2="1514.642" y2="14.982">
      <stop offset="0" stop-color="#636466"/>
      <stop offset="0.117" stop-color="#CDCFD0"/>
      <stop offset="0.441" stop-color="#67686B"/>
      <stop offset="0.593" stop-color="#A1A3A6"/>
      <stop offset="0.809" stop-color="#E6E7E8"/>
      <stop offset="1" stop-color="#58595B"/>
    </linearGradient>
    <linearGradient id="Gradient_86" gradientUnits="userSpaceOnUse" x1="-13.548" y1="13.58" x2="1514.642" y2="13.58">
      <stop offset="0" stop-color="#636466"/>
      <stop offset="0.117" stop-color="#CDCFD0"/>
      <stop offset="0.441" stop-color="#67686B"/>
      <stop offset="0.593" stop-color="#A1A3A6"/>
      <stop offset="0.809" stop-color="#E6E7E8"/>
      <stop offset="1" stop-color="#58595B"/>
    </linearGradient>
    <linearGradient id="Gradient_87" gradientUnits="userSpaceOnUse" x1="-13.548" y1="18.848" x2="1514.642" y2="18.848">
      <stop offset="0" stop-color="#636466"/>
      <stop offset="0.117" stop-color="#CDCFD0"/>
      <stop offset="0.441" stop-color="#67686B"/>
      <stop offset="0.593" stop-color="#A1A3A6"/>
      <stop offset="0.809" stop-color="#E6E7E8"/>
      <stop offset="1" stop-color="#58595B"/>
    </linearGradient>
    <linearGradient id="Gradient_88" gradientUnits="userSpaceOnUse" x1="-13.547" y1="141.625" x2="1514.643" y2="141.625">
      <stop offset="0" stop-color="#636466"/>
      <stop offset="0.117" stop-color="#CDCFD0"/>
      <stop offset="0.441" stop-color="#67686B"/>
      <stop offset="0.593" stop-color="#A1A3A6"/>
      <stop offset="0.809" stop-color="#E6E7E8"/>
      <stop offset="1" stop-color="#58595B"/>
    </linearGradient>
    <linearGradient id="Gradient_89" gradientUnits="userSpaceOnUse" x1="-13.548" y1="154.512" x2="1514.642" y2="154.512">
      <stop offset="0" stop-color="#636466"/>
      <stop offset="0.117" stop-color="#CDCFD0"/>
      <stop offset="0.441" stop-color="#67686B"/>
      <stop offset="0.593" stop-color="#A1A3A6"/>
      <stop offset="0.809" stop-color="#E6E7E8"/>
      <stop offset="1" stop-color="#58595B"/>
    </linearGradient>
    <linearGradient id="Gradient_90" gradientUnits="userSpaceOnUse" x1="-13.549" y1="181.334" x2="1514.641" y2="181.334">
      <stop offset="0" stop-color="#636466"/>
      <stop offset="0.117" stop-color="#CDCFD0"/>
      <stop offset="0.441" stop-color="#67686B"/>
      <stop offset="0.593" stop-color="#A1A3A6"/>
      <stop offset="0.809" stop-color="#E6E7E8"/>
      <stop offset="1" stop-color="#58595B"/>
    </linearGradient>
    <linearGradient id="Gradient_91" gradientUnits="userSpaceOnUse" x1="-13.548" y1="121.031" x2="1514.642" y2="121.031">
      <stop offset="0" stop-color="#636466"/>
      <stop offset="0.117" stop-color="#CDCFD0"/>
      <stop offset="0.441" stop-color="#67686B"/>
      <stop offset="0.593" stop-color="#A1A3A6"/>
      <stop offset="0.809" stop-color="#E6E7E8"/>
      <stop offset="1" stop-color="#58595B"/>
    </linearGradient>
    <linearGradient id="Gradient_92" gradientUnits="userSpaceOnUse" x1="-13.548" y1="148.946" x2="1514.642" y2="148.946">
      <stop offset="0" stop-color="#636466"/>
      <stop offset="0.117" stop-color="#CDCFD0"/>
      <stop offset="0.441" stop-color="#67686B"/>
      <stop offset="0.593" stop-color="#A1A3A6"/>
      <stop offset="0.809" stop-color="#E6E7E8"/>
      <stop offset="1" stop-color="#58595B"/>
    </linearGradient>
    <linearGradient id="Gradient_93" gradientUnits="userSpaceOnUse" x1="-13.548" y1="138.809" x2="1514.642" y2="138.809">
      <stop offset="0" stop-color="#636466"/>
      <stop offset="0.117" stop-color="#CDCFD0"/>
      <stop offset="0.441" stop-color="#67686B"/>
      <stop offset="0.593" stop-color="#A1A3A6"/>
      <stop offset="0.809" stop-color="#E6E7E8"/>
      <stop offset="1" stop-color="#58595B"/>
    </linearGradient>
    <linearGradient id="Gradient_94" gradientUnits="userSpaceOnUse" x1="-13.546" y1="139.996" x2="1514.644" y2="139.996">
      <stop offset="0" stop-color="#636466"/>
      <stop offset="0.117" stop-color="#CDCFD0"/>
      <stop offset="0.441" stop-color="#67686B"/>
      <stop offset="0.593" stop-color="#A1A3A6"/>
      <stop offset="0.809" stop-color="#E6E7E8"/>
      <stop offset="1" stop-color="#58595B"/>
    </linearGradient>
    <linearGradient id="Gradient_95" gradientUnits="userSpaceOnUse" x1="-13.549" y1="141.845" x2="1514.641" y2="141.845">
      <stop offset="0" stop-color="#636466"/>
      <stop offset="0.117" stop-color="#CDCFD0"/>
      <stop offset="0.441" stop-color="#67686B"/>
      <stop offset="0.593" stop-color="#A1A3A6"/>
      <stop offset="0.809" stop-color="#E6E7E8"/>
      <stop offset="1" stop-color="#58595B"/>
    </linearGradient>
    <linearGradient id="Gradient_96" gradientUnits="userSpaceOnUse" x1="-13.548" y1="155.869" x2="1514.642" y2="155.869">
      <stop offset="0" stop-color="#636466"/>
      <stop offset="0.117" stop-color="#CDCFD0"/>
      <stop offset="0.441" stop-color="#67686B"/>
      <stop offset="0.593" stop-color="#A1A3A6"/>
      <stop offset="0.809" stop-color="#E6E7E8"/>
      <stop offset="1" stop-color="#58595B"/>
    </linearGradient>
    <linearGradient id="Gradient_97" gradientUnits="userSpaceOnUse" x1="-13.548" y1="174.723" x2="1514.642" y2="174.723">
      <stop offset="0" stop-color="#636466"/>
      <stop offset="0.117" stop-color="#CDCFD0"/>
      <stop offset="0.441" stop-color="#67686B"/>
      <stop offset="0.593" stop-color="#A1A3A6"/>
      <stop offset="0.809" stop-color="#E6E7E8"/>
      <stop offset="1" stop-color="#58595B"/>
    </linearGradient>
    <linearGradient id="Gradient_98" gradientUnits="userSpaceOnUse" x1="-13.55" y1="175.755" x2="1514.64" y2="175.755">
      <stop offset="0" stop-color="#636466"/>
      <stop offset="0.117" stop-color="#CDCFD0"/>
      <stop offset="0.441" stop-color="#67686B"/>
      <stop offset="0.593" stop-color="#A1A3A6"/>
      <stop offset="0.809" stop-color="#E6E7E8"/>
      <stop offset="1" stop-color="#58595B"/>
    </linearGradient>
    <linearGradient id="Gradient_99" gradientUnits="userSpaceOnUse" x1="-13.548" y1="160.635" x2="1514.642" y2="160.635">
      <stop offset="0" stop-color="#636466"/>
      <stop offset="0.117" stop-color="#CDCFD0"/>
      <stop offset="0.441" stop-color="#67686B"/>
      <stop offset="0.593" stop-color="#A1A3A6"/>
      <stop offset="0.809" stop-color="#E6E7E8"/>
      <stop offset="1" stop-color="#58595B"/>
    </linearGradient>
    <linearGradient id="Gradient_100" gradientUnits="userSpaceOnUse" x1="-13.547" y1="153.825" x2="1514.642" y2="153.825">
      <stop offset="0" stop-color="#636466"/>
      <stop offset="0.117" stop-color="#CDCFD0"/>
      <stop offset="0.441" stop-color="#67686B"/>
      <stop offset="0.593" stop-color="#A1A3A6"/>
      <stop offset="0.809" stop-color="#E6E7E8"/>
      <stop offset="1" stop-color="#58595B"/>
    </linearGradient>
    <linearGradient id="Gradient_101" gradientUnits="userSpaceOnUse" x1="-13.548" y1="150.994" x2="1514.642" y2="150.994">
      <stop offset="0" stop-color="#636466"/>
      <stop offset="0.117" stop-color="#CDCFD0"/>
      <stop offset="0.441" stop-color="#67686B"/>
      <stop offset="0.593" stop-color="#A1A3A6"/>
      <stop offset="0.809" stop-color="#E6E7E8"/>
      <stop offset="1" stop-color="#58595B"/>
    </linearGradient>
    <linearGradient id="Gradient_102" gradientUnits="userSpaceOnUse" x1="-13.548" y1="158.253" x2="1514.642" y2="158.253">
      <stop offset="0" stop-color="#636466"/>
      <stop offset="0.117" stop-color="#CDCFD0"/>
      <stop offset="0.441" stop-color="#67686B"/>
      <stop offset="0.593" stop-color="#A1A3A6"/>
      <stop offset="0.809" stop-color="#E6E7E8"/>
      <stop offset="1" stop-color="#58595B"/>
    </linearGradient>
    <linearGradient id="Gradient_103" gradientUnits="userSpaceOnUse" x1="-13.548" y1="152.777" x2="1514.642" y2="152.777">
      <stop offset="0" stop-color="#636466"/>
      <stop offset="0.117" stop-color="#CDCFD0"/>
      <stop offset="0.441" stop-color="#67686B"/>
      <stop offset="0.593" stop-color="#A1A3A6"/>
      <stop offset="0.809" stop-color="#E6E7E8"/>
      <stop offset="1" stop-color="#58595B"/>
    </linearGradient>
    <linearGradient id="Gradient_104" gradientUnits="userSpaceOnUse" x1="-13.546" y1="96.605" x2="1514.644" y2="96.605">
      <stop offset="0" stop-color="#636466"/>
      <stop offset="0.117" stop-color="#CDCFD0"/>
      <stop offset="0.441" stop-color="#67686B"/>
      <stop offset="0.593" stop-color="#A1A3A6"/>
      <stop offset="0.809" stop-color="#E6E7E8"/>
      <stop offset="1" stop-color="#58595B"/>
    </linearGradient>
    <linearGradient id="Gradient_105" gradientUnits="userSpaceOnUse" x1="-13.552" y1="95.919" x2="1514.637" y2="95.919">
      <stop offset="0" stop-color="#636466"/>
      <stop offset="0.117" stop-color="#CDCFD0"/>
      <stop offset="0.441" stop-color="#67686B"/>
      <stop offset="0.593" stop-color="#A1A3A6"/>
      <stop offset="0.809" stop-color="#E6E7E8"/>
      <stop offset="1" stop-color="#58595B"/>
    </linearGradient>
    <linearGradient id="Gradient_106" gradientUnits="userSpaceOnUse" x1="-13.548" y1="94.561" x2="1514.642" y2="94.561">
      <stop offset="0" stop-color="#636466"/>
      <stop offset="0.117" stop-color="#CDCFD0"/>
      <stop offset="0.441" stop-color="#67686B"/>
      <stop offset="0.593" stop-color="#A1A3A6"/>
      <stop offset="0.809" stop-color="#E6E7E8"/>
      <stop offset="1" stop-color="#58595B"/>
    </linearGradient>
    <linearGradient id="Gradient_107" gradientUnits="userSpaceOnUse" x1="-13.548" y1="99.431" x2="1514.642" y2="99.431">
      <stop offset="0" stop-color="#636466"/>
      <stop offset="0.117" stop-color="#CDCFD0"/>
      <stop offset="0.441" stop-color="#67686B"/>
      <stop offset="0.593" stop-color="#A1A3A6"/>
      <stop offset="0.809" stop-color="#E6E7E8"/>
      <stop offset="1" stop-color="#58595B"/>
    </linearGradient>
    <linearGradient id="Gradient_108" gradientUnits="userSpaceOnUse" x1="-13.548" y1="75.706" x2="1514.632" y2="75.706">
      <stop offset="0" stop-color="#636466"/>
      <stop offset="0.117" stop-color="#CDCFD0"/>
      <stop offset="0.441" stop-color="#67686B"/>
      <stop offset="0.593" stop-color="#A1A3A6"/>
      <stop offset="0.809" stop-color="#E6E7E8"/>
      <stop offset="1" stop-color="#58595B"/>
    </linearGradient>
    <linearGradient id="Gradient_109" gradientUnits="userSpaceOnUse" x1="-13.548" y1="81.084" x2="1514.642" y2="81.084">
      <stop offset="0" stop-color="#636466"/>
      <stop offset="0.117" stop-color="#CDCFD0"/>
      <stop offset="0.441" stop-color="#67686B"/>
      <stop offset="0.593" stop-color="#A1A3A6"/>
      <stop offset="0.809" stop-color="#E6E7E8"/>
      <stop offset="1" stop-color="#58595B"/>
    </linearGradient>
    <linearGradient id="Gradient_110" gradientUnits="userSpaceOnUse" x1="-13.548" y1="119.699" x2="1514.642" y2="119.699">
      <stop offset="0" stop-color="#636466"/>
      <stop offset="0.117" stop-color="#CDCFD0"/>
      <stop offset="0.441" stop-color="#67686B"/>
      <stop offset="0.593" stop-color="#A1A3A6"/>
      <stop offset="0.809" stop-color="#E6E7E8"/>
      <stop offset="1" stop-color="#58595B"/>
    </linearGradient>
    <linearGradient id="Gradient_111" gradientUnits="userSpaceOnUse" x1="-13.548" y1="92.177" x2="1514.642" y2="92.177">
      <stop offset="0" stop-color="#636466"/>
      <stop offset="0.117" stop-color="#CDCFD0"/>
      <stop offset="0.441" stop-color="#67686B"/>
      <stop offset="0.593" stop-color="#A1A3A6"/>
      <stop offset="0.809" stop-color="#E6E7E8"/>
      <stop offset="1" stop-color="#58595B"/>
    </linearGradient>
    <linearGradient id="Gradient_112" gradientUnits="userSpaceOnUse" x1="-13.548" y1="94.276" x2="1514.642" y2="94.276">
      <stop offset="0" stop-color="#636466"/>
      <stop offset="0.117" stop-color="#CDCFD0"/>
      <stop offset="0.441" stop-color="#67686B"/>
      <stop offset="0.593" stop-color="#A1A3A6"/>
      <stop offset="0.809" stop-color="#E6E7E8"/>
      <stop offset="1" stop-color="#58595B"/>
    </linearGradient>
    <linearGradient id="Gradient_113" gradientUnits="userSpaceOnUse" x1="-13.548" y1="111.621" x2="1514.642" y2="111.621">
      <stop offset="0" stop-color="#636466"/>
      <stop offset="0.117" stop-color="#CDCFD0"/>
      <stop offset="0.441" stop-color="#67686B"/>
      <stop offset="0.593" stop-color="#A1A3A6"/>
      <stop offset="0.809" stop-color="#E6E7E8"/>
      <stop offset="1" stop-color="#58595B"/>
    </linearGradient>
    <linearGradient id="Gradient_114" gradientUnits="userSpaceOnUse" x1="-13.548" y1="101.483" x2="1514.642" y2="101.483">
      <stop offset="0" stop-color="#636466"/>
      <stop offset="0.117" stop-color="#CDCFD0"/>
      <stop offset="0.441" stop-color="#67686B"/>
      <stop offset="0.593" stop-color="#A1A3A6"/>
      <stop offset="0.809" stop-color="#E6E7E8"/>
      <stop offset="1" stop-color="#58595B"/>
    </linearGradient>
    <linearGradient id="Gradient_115" gradientUnits="userSpaceOnUse" x1="-13.548" y1="110.433" x2="1514.642" y2="110.433">
      <stop offset="0" stop-color="#636466"/>
      <stop offset="0.117" stop-color="#CDCFD0"/>
      <stop offset="0.441" stop-color="#67686B"/>
      <stop offset="0.593" stop-color="#A1A3A6"/>
      <stop offset="0.809" stop-color="#E6E7E8"/>
      <stop offset="1" stop-color="#58595B"/>
    </linearGradient>
    <linearGradient id="Gradient_116" gradientUnits="userSpaceOnUse" x1="-13.548" y1="115.28" x2="1514.642" y2="115.28">
      <stop offset="0" stop-color="#636466"/>
      <stop offset="0.117" stop-color="#CDCFD0"/>
      <stop offset="0.441" stop-color="#67686B"/>
      <stop offset="0.593" stop-color="#A1A3A6"/>
      <stop offset="0.809" stop-color="#E6E7E8"/>
      <stop offset="1" stop-color="#58595B"/>
    </linearGradient>
    <linearGradient id="Gradient_117" gradientUnits="userSpaceOnUse" x1="-13.548" y1="108.585" x2="1514.642" y2="108.585">
      <stop offset="0" stop-color="#636466"/>
      <stop offset="0.117" stop-color="#CDCFD0"/>
      <stop offset="0.441" stop-color="#67686B"/>
      <stop offset="0.593" stop-color="#A1A3A6"/>
      <stop offset="0.809" stop-color="#E6E7E8"/>
      <stop offset="1" stop-color="#58595B"/>
    </linearGradient>
    <linearGradient id="Gradient_118" gradientUnits="userSpaceOnUse" x1="-13.548" y1="108.804" x2="1514.642" y2="108.804">
      <stop offset="0" stop-color="#636466"/>
      <stop offset="0.117" stop-color="#CDCFD0"/>
      <stop offset="0.441" stop-color="#67686B"/>
      <stop offset="0.593" stop-color="#A1A3A6"/>
      <stop offset="0.809" stop-color="#E6E7E8"/>
      <stop offset="1" stop-color="#58595B"/>
    </linearGradient>
  </defs>
  <g id="Capa_1">
    <g>
      <path d="M-0,-0 L1500,-0 L1500,250 L-0,250 z" fill="url(#Gradient_1)"/>
      <path d="M1471.12,233.677 C1339.02,233.542 1210.9,233.18 1080.33,232.941 C1048.91,232.883 1004.38,232.807 983.411,232.925 C801.453,233.955 321.658,234.057 160.167,233.183 C485.035,232.789 829.51,232.371 1173.99,231.952 C1170.48,231.76 1166.96,231.567 1163.44,231.373 C775.643,231.239 387.904,231.086 -0,230.995 L-0,235.472 C233.846,235.472 478.213,235.472 722.593,235.472 C723.094,235.412 723.584,235.354 724.085,235.295 C588.67,235.048 453.243,234.801 317.827,234.555 C317.541,234.443 317.254,234.331 316.956,234.219 C711.304,234.219 1105.65,234.219 1500,234.219 L1500,233.702 C1490.35,233.695 1480.72,233.686 1471.12,233.677 z" fill="url(#Gradient_2)"/>
      <path d="M1419.11,231.74 C1447.88,231.75 1474.8,231.76 1500,231.768 L1500,231.392 C1477.38,231.49 1455.79,231.583 1419.11,231.74 z" fill="url(#Gradient_3)"/>
      <path d="M1068.21,230.356 C1065.88,230.488 1063.55,230.621 1061.21,230.754 C1204.02,230.901 1346.83,231.048 1500,231.206 L1500,230.356 C1356.07,230.356 1212.14,230.356 1068.21,230.356 z" fill="url(#Gradient_4)"/>
      <path d="M1282.99,225.749 C1128.15,225.68 973.22,225.622 818.471,225.542 C661.921,225.461 505.538,225.36 301.609,225.239 C664.331,225.239 977.767,225.239 1291.23,225.239 C1288.48,225.409 1285.74,225.579 1282.99,225.749 z M-0,224.632 L-0,225.863 C138.224,225.863 276.448,225.863 414.672,225.863 C415.316,226.022 415.984,226.18 416.629,226.338 C365.265,226.441 313.889,226.544 262.513,226.648 C263.635,226.833 264.757,227.021 265.867,227.207 C491.264,227.207 771.392,227.862 930.054,227.064 C1125.01,226.083 1312.39,226.176 1500,226.349 L1500,223.752 C999.687,224.005 499.889,224.324 -0,224.632" fill="url(#Gradient_5)"/>
      <path d="M1375.34,226.54 C1376.09,226.673 1376.84,226.804 1377.6,226.937 C1418.4,226.937 1459.2,226.937 1500,226.937 L1500,226.54 C1458.45,226.54 1416.89,226.54 1375.34,226.54 z" fill="url(#Gradient_6)"/>
      <path d="M1239.87,222.241 C884.896,222.208 529.955,222.086 175.311,221.951 C116.615,221.929 58.321,221.852 -0,221.772 L-0,222.903 C394.547,222.903 775.472,222.903 1156.39,222.903 C787.156,223.176 417.106,223.305 47.486,223.486 C31.607,223.495 15.791,223.51 -0,223.528 L-0,224.037 C24.466,223.959 49.109,223.904 74.099,223.893 C309.223,223.777 548.428,224.019 781.368,223.81 C1022.7,223.593 1261.14,223.181 1500,222.799 L1500,222.06 C1413.23,222.158 1326.48,222.248 1239.87,222.241 z" fill="url(#Gradient_7)"/>
      <path d="M-0,239.237 C110.729,239.134 221.454,239.033 332.184,238.931 C221.466,238.885 110.045,238.749 -0,238.671 L-0,239.237 z" fill="url(#Gradient_8)"/>
      <path d="M926.796,235.411 C1118.11,235.557 1304.76,235.699 1500,235.848 L1500,235.048 C1311.7,235.153 1121.76,235.288 926.796,235.411 z" fill="url(#Gradient_9)"/>
      <path d="M1378.44,236.71 C1220.24,236.568 1064.81,236.019 908.334,236.022 C605.512,236.031 302.739,236.146 -0,236.267 L-0,236.964 C505.622,237.204 1003.31,237.44 1500,237.676 L1500,236.765 C1459.28,236.76 1418.71,236.745 1378.44,236.71 z" fill="url(#Gradient_10)"/>
      <path d="M6.146,238.065 C8.271,238.205 10.407,238.344 12.531,238.484 C494.2,238.484 975.869,238.484 1457.54,238.484 C1458.05,238.667 1458.58,238.849 1459.09,239.032 C1202.69,239.032 946.284,239.032 689.882,239.032 C689.978,239.161 690.073,239.289 690.168,239.419 C960.105,239.567 1230.05,239.715 1500,239.863 L1500,238.065 C1002.04,238.065 504.094,238.065 6.146,238.065 z" fill="url(#Gradient_11)"/>
      <path d="M398.513,199.337 C754.003,199.337 1109.48,199.337 1464.96,199.337 C1462.63,199.039 1460.31,198.741 1457.99,198.443 C1104.79,198.59 751.593,198.734 398.394,198.881 C398.441,199.033 398.477,199.184 398.513,199.337 z" fill="url(#Gradient_12)"/>
      <path d="M423.36,191.003 C282.243,190.858 141.122,190.711 -0,190.566 L-0,192.632 C270.792,192.728 541.584,192.824 812.373,192.919 C813.268,192.745 814.175,192.572 815.07,192.396 C575.805,192.396 336.54,192.396 97.274,192.396 C97.167,192.256 97.06,192.115 96.953,191.974 C270.652,191.974 444.364,191.974 618.063,191.974 C617.526,191.846 617.001,191.717 616.464,191.588 C444.614,191.588 272.752,191.588 100.903,191.588 C100.544,191.461 100.175,191.334 99.816,191.207 C208.881,191.207 317.935,191.207 427,191.207 C425.794,191.139 424.577,191.071 423.36,191.003 z" fill="url(#Gradient_13)"/>
      <path d="M751.76,199.808 C501.174,199.678 250.586,199.548 -0,199.418 L-0,200.183 C248.366,200.506 500.127,200.19 751.76,199.808 z" fill="url(#Gradient_14)"/>
      <path d="M395.446,194.629 C394.05,194.436 392.653,194.242 391.257,194.05 C260.84,194.099 130.42,194.147 -0,194.196 L-0,194.894 C131.815,194.807 263.631,194.717 395.446,194.629 z" fill="url(#Gradient_15)"/>
      <path d="M-0,188.124 L-0,189.037 C71.645,189.052 145.103,189.126 216.83,189.416 C138.865,189.463 67.928,189.507 -0,189.549 L-0,190.174 C303.696,190.003 607.397,189.833 911.091,189.66 C910.399,189.539 909.719,189.416 909.026,189.294 C738.107,189.294 567.176,189.294 396.257,189.294 C398.465,189.1 400.661,188.906 402.869,188.713 C771.361,189.009 1139.84,189.305 1500,189.596 L1500,188.696 C999.936,188.504 506.538,188.316 -0,188.124 z" fill="url(#Gradient_16)"/>
      <path d="M786.309,219.693 C882.712,219.693 979.127,219.693 1075.53,219.693 L1075.46,219.927 C1026.93,220.029 978.423,220.131 929.899,220.233 C931.749,220.344 933.599,220.456 935.448,220.567 C1064,220.567 1192.57,220.567 1347.24,220.567 C1269.51,220.815 1218.36,220.978 1167.22,221.139 C1280.63,221.306 1391.03,221.392 1500,221.421 L1500,219.816 C1281.77,218.863 1024.56,219.648 786.309,219.693 z" fill="url(#Gradient_17)"/>
      <path d="M1144.79,190.587 C1260.17,190.874 1378.7,191.169 1500,191.471 L1500,190.309 C1379.72,190.19 1251.12,190.267 1144.79,190.587 z" fill="url(#Gradient_18)"/>
      <path d="M539.466,195.59 C539.036,195.618 538.606,195.644 538.188,195.672 C858.782,195.838 1179.39,196.005 1500,196.172 L1500,195.59 C1179.82,195.59 859.644,195.59 539.466,195.59 z" fill="url(#Gradient_19)"/>
      <path d="M1333.33,187.042 C1020.56,187.042 707.783,187.042 395.004,187.042 C395.16,187.164 395.315,187.286 395.47,187.407 C708.463,187.407 1021.45,187.407 1334.44,187.407 C1334.07,187.286 1333.7,187.164 1333.33,187.042 z" fill="url(#Gradient_20)"/>
      <path d="M1179.13,217.989 C1178.02,218.178 1176.9,218.369 1175.79,218.559 C1283.86,218.637 1391.93,218.716 1500,218.796 L1500,217.681 C1393.01,217.779 1286.11,217.892 1179.13,217.989 z" fill="url(#Gradient_21)"/>
      <path d="M50.111,215.062 C50.111,215.24 50.1,215.418 50.1,215.597 C533.396,215.597 1016.7,215.597 1500,215.597 L1500,215.062 C1016.71,215.062 533.414,215.062 50.111,215.062 z" fill="url(#Gradient_22)"/>
      <path d="M-0,197.427 C216.504,197.427 439.621,197.427 688.08,197.427 C618.314,196.98 597.99,196.85 561.413,196.616 C684.965,196.566 779.22,196.528 873.475,196.489 C622.896,196.051 374.729,195.68 124.401,195.447 C83.304,195.408 41.739,195.383 -0,195.371 L-0,196.859 C67.778,196.789 135.081,196.614 202.664,196.498 C206.399,196.712 210.135,196.925 213.87,197.138 C142.583,197.172 71.29,197.204 -0,197.239 L-0,197.427 z" fill="url(#Gradient_23)"/>
      <path d="M-0,204.917 L-0,205.174 C29.02,205.174 57.945,205.174 86.868,205.174 C87.704,205.104 88.527,205.035 89.351,204.966 C59.565,204.95 29.784,204.933 -0,204.917 z" fill="url(#Gradient_24)"/>
      <path d="M687.03,214.023 C685.598,213.873 684.166,213.723 682.733,213.573 C844.845,213.405 1006.96,213.237 1169.07,213.07 C1168.14,212.977 1167.21,212.884 1166.28,212.792 C781.457,212.929 396.626,213.065 -0,213.207 L-0,214.98 C79.087,214.757 156.299,214.429 235.471,214.415 C656.811,214.342 1078.45,214.376 1500,214.362 L1500,213.692 C1229.01,213.803 958.017,213.912 687.03,214.023 z" fill="url(#Gradient_25)"/>
      <path d="M356.422,212.088 C592.274,211.63 782.729,211.261 973.184,210.892 C970.033,210.77 966.883,210.649 963.72,210.528 C642.477,210.779 321.239,211.03 -0,211.282 L-0,212.073 C76.887,212.073 153.777,212.073 230.661,212.073 C229.885,212.221 229.122,212.369 228.346,212.517 C152.233,212.517 76.116,212.517 -0,212.517 L-0,212.636 C499.378,212.636 998.901,212.636 1500,212.636 L1500,211.494 C1133.6,212.249 755.808,212.084 356.422,212.088 z" fill="url(#Gradient_26)"/>
      <path d="M1350.36,216.573 C1369.99,216.346 1396.13,216.266 1421.21,216.17 C1423.68,216.16 1419.81,216.051 1420.27,216.082 C1050.21,216.082 681.814,216.082 313.423,216.082 C310.87,216.162 308.316,216.242 305.75,216.323 C381.973,216.493 458.195,216.663 534.417,216.834 C533.511,216.905 532.604,216.976 531.697,217.046 C355.634,217.046 179.555,217.046 -0,217.046 L-0,221.046 C241.645,221.165 483.291,221.284 724.932,221.401 C726.914,221.234 728.894,221.067 730.875,220.9 C568.107,220.69 405.328,220.481 242.56,220.272 C244.946,220.155 247.333,220.037 249.72,219.919 C404.6,219.643 559.479,219.365 714.359,219.088 C713.142,218.904 711.936,218.719 710.719,218.535 C517.853,218.37 324.976,218.206 132.098,218.042 C131,217.905 129.878,217.77 128.78,217.634 C585.851,217.404 1042.92,217.172 1500,216.94 L1500,216.366 C1450.12,216.434 1400.24,216.504 1350.36,216.573 z" fill="url(#Gradient_27)"/>
      <path d="M1500,88.778 C1244.83,89.807 971.257,89.62 696.935,89.494 C629.126,89.463 562.605,89.264 441.153,89.042 C691.397,88.72 875.205,88.482 1059.01,88.247 C1055.06,88.082 1051.11,87.917 1047.17,87.752 C858.7,87.752 670.239,87.752 481.765,87.752 C482.111,87.801 482.445,87.852 482.791,87.901 C530.062,87.979 577.333,88.058 683.963,88.235 C435.314,88.324 212.891,88.404 -0,88.48 L-0,88.943 C115.692,88.865 230.179,88.789 342.268,88.714 C371.876,89.471 397.559,90.127 402.702,90.258 C623.362,90.258 786.846,90.18 947.573,90.309 C993.353,90.346 1031.09,90.987 1118.52,91.754 C1279.27,91.793 1403.42,91.824 1500,91.836 L1500,91.481 C1389.52,91.52 1285.03,91.333 1194.87,90.513 C1296.59,90.381 1398.3,90.251 1500,90.119 L1500,88.778 z" fill="url(#Gradient_28)"/>
      <path d="M1500,70.911 L1500,69.663 C1330.48,69.663 1156.65,69.663 966.477,69.663 C1142.81,69.758 1270.72,69.826 1398.63,69.894 C1397.69,69.911 1396.73,69.928 1395.79,69.946 C930.527,69.946 465.264,69.946 -0,69.946 L-0,71.639 C278.193,71.77 528.396,71.889 778.611,72.007 C780.783,72.165 782.955,72.324 785.14,72.482 C587.059,72.677 388.727,73.018 191.004,72.997 C131.723,72.992 73.09,72.604 -0,72.155 L-0,73.409 C306.479,73.61 608.755,73.809 911.02,74.008 C910.781,74.081 910.554,74.156 910.315,74.229 C845.716,74.313 781.118,74.396 716.531,74.48 C718.13,74.523 719.729,74.566 721.328,74.61 C980.889,74.721 1240.45,74.833 1500,74.944 L1500,73.112 C1456.31,73.112 1412.61,73.112 1368.92,73.112 C1369.64,73.026 1370.37,72.94 1371.1,72.855 C1413.56,72.855 1456.01,72.855 1500,72.855 L1500,71.453 C1277.16,71.453 1054.32,71.453 831.491,71.453 C831.515,71.273 831.539,71.092 831.563,70.911 C1054.37,70.911 1277.19,70.911 1500,70.911 z" fill="url(#Gradient_29)"/>
      <path d="M1500,60.255 C1195.98,60.426 891.976,60.597 587.954,60.768 C588.646,60.891 589.326,61.014 590.018,61.136 C760.949,61.136 931.868,61.136 1102.79,61.136 C1100.59,61.33 1098.38,61.524 1096.18,61.718 C728.017,61.421 359.856,61.125 -0,60.835 L-0,61.734 C500.054,61.926 993.452,62.113 1500,62.307 L1500,61.392 C1428.05,61.379 1354.26,61.305 1282.21,61.015 C1360.54,60.967 1431.78,60.922 1500,60.88 L1500,60.255 z" fill="url(#Gradient_30)"/>
      <path d="M1500,119.291 C1273.24,119.173 1014.28,119.037 730.47,118.889 C944.137,118.673 1121.31,118.493 1292.35,118.319 C861.564,118.319 430.782,118.319 -0,118.319 L-0,119.192 C155.559,119.471 310.85,119.677 467.122,119.815 C789.758,120.099 1115.41,120.178 1439.76,120.346 C1441.63,120.408 1443.5,120.471 1445.38,120.533 C1292.69,120.621 1140.01,120.709 987.313,120.797 C985.978,120.911 984.641,121.025 983.304,121.139 C1123.84,121.247 1264.4,121.355 1404.93,121.461 C1404.93,121.579 1404.92,121.695 1404.91,121.813 C936.609,121.813 468.306,121.813 -0,121.813 L-0,123.22 C53.716,123.217 107.528,123.207 160.251,123.221 C372.783,123.28 585.877,123.209 798.601,123.243 C1000.3,123.275 1201.83,123.371 1403.43,123.439 C1402.44,123.644 1401.45,123.85 1400.47,124.055 C933.643,124.055 466.82,124.055 -0,124.055 L-0,124.747 C499.995,124.752 999.996,124.751 1500,124.75 L1500,122.661 C1202.35,123.223 902.827,122.492 614.797,122.647 C904.578,122.452 1194.96,122.258 1500,122.053 L1500,119.291 z" fill="url(#Gradient_31)"/>
      <path d="M1398.05,118.213 C1362.94,118.249 1327.72,118.284 1292.35,118.319 C1326.07,118.319 1359.79,118.319 1393.51,118.319 C1395.03,118.285 1396.53,118.249 1398.05,118.213 z" fill="url(#Gradient_32)"/>
      <path d="M1500,97.123 C1176.78,97.277 853.554,97.431 530.336,97.584 C530.014,97.784 529.692,97.982 529.357,98.181 C852.912,98.181 1176.45,98.181 1500,98.181 L1500,97.973 C1452.43,97.845 1404.86,97.716 1357.29,97.588 L1357.24,97.372 C1404.83,97.372 1452.41,97.372 1500,97.372 L1500,97.123 z" fill="url(#Gradient_33)"/>
      <path d="M1500,103.589 L1500,103.26 C987.875,103.026 340.904,103.661 135.356,104.582 C154.367,104.664 172.674,104.741 191.004,104.82 C186.876,104.96 182.746,105.101 178.617,105.241 C119.079,105.241 59.538,105.241 -0,105.241 L-0,105.877 C174.456,105.992 348.911,106.108 523.367,106.223 C522.77,106.298 522.173,106.374 521.577,106.448 C349.951,106.448 178.316,106.448 -0,106.448 L-0,107.007 C526.407,106.608 1011.22,108.063 1500,107.699 L1500,106.927 C1408.29,106.927 1316.54,106.936 1224.84,106.936 C1225.4,106.793 1225.95,106.649 1226.51,106.506 C1317.68,106.506 1408.85,106.506 1500,106.506 L1500,106.063 C1216.14,106.063 946.449,106.063 676.767,106.063 C674.487,106.015 672.208,105.967 669.917,105.917 C705.73,105.842 741.533,105.767 777.347,105.693 C778.516,105.593 779.71,105.491 780.879,105.391 C640.225,105.33 499.57,105.268 358.916,105.207 C360.252,105.062 361.589,104.916 362.926,104.772 C731.424,104.772 1099.92,104.772 1500,104.772 L1500,104.059 C1383.88,104.059 1269.62,104.059 1155.37,104.059 C1158.54,103.903 1161.72,103.747 1164.9,103.589 C1276.6,103.589 1388.3,103.589 1500,103.589 z" fill="url(#Gradient_34)"/>
      <path d="M1500,67.161 L1500,64.132 C1172.48,64.217 832.002,64.843 750.674,65.792 C931.498,65.792 1090.73,65.792 1249.98,65.792 C1249.25,65.961 1248.51,66.13 1247.79,66.3 C831.857,66.3 415.928,66.3 -0,66.3 L-0,66.764 C124.416,66.764 248.833,66.764 373.249,66.764 C373.165,66.887 373.07,67.011 372.986,67.133 C248.66,67.133 124.33,67.133 -0,67.133 L-0,67.59 C509.212,67.59 1014.65,67.59 1500,67.59 L1500,67.506 C1456.13,67.472 1407.17,67.434 1358.2,67.396 C1359.49,67.291 1360.78,67.187 1362.05,67.083 C1407.92,67.109 1453.79,67.134 1500,67.161 z" fill="url(#Gradient_35)"/>
      <path d="M1500,53.002 C1283.2,53.002 1059.79,53.002 810.965,53.002 C880.731,53.45 901.055,53.58 937.645,53.815 C814.079,53.865 719.825,53.902 625.57,53.94 C876.148,54.379 1124.32,54.75 1374.64,54.984 C1416.06,55.022 1457.94,55.047 1500,55.059 L1500,53.569 C1431.89,53.638 1364.28,53.816 1296.38,53.931 C1292.65,53.718 1288.91,53.505 1285.16,53.291 C1356.78,53.259 1428.39,53.225 1500,53.191 L1500,53.002 z" fill="url(#Gradient_36)"/>
      <path d="M1500,37.912 L1500,37.794 C1000.62,37.794 501.098,37.794 -0,37.794 L-0,38.933 C366.099,38.18 743.588,38.346 1142.62,38.342 C906.771,38.8 716.316,39.168 525.861,39.539 C529.012,39.66 532.174,39.781 535.325,39.902 C856.883,39.651 1178.44,39.399 1500,39.147 L1500,38.357 C1422.79,38.357 1345.59,38.357 1268.38,38.357 C1269.16,38.208 1269.93,38.061 1270.7,37.912 C1347.14,37.912 1423.57,37.912 1500,37.912 z" fill="url(#Gradient_37)"/>
      <path d="M1500,8.382 C1245.34,8.523 990.685,8.664 736.031,8.806 C732.57,8.905 729.121,9.004 725.66,9.103 C983.773,9.232 1241.89,9.362 1500,9.49 L1500,9.118 C1452.89,9.101 1405.78,9.083 1358.66,9.064 C1358.44,8.993 1358.21,8.922 1357.97,8.851 C1405.32,8.831 1452.66,8.811 1500,8.792 L1500,8.382 z" fill="url(#Gradient_38)"/>
      <path d="M1500,26.901 L1500,26.39 C1475.22,26.47 1450.27,26.526 1424.96,26.537 C1189.81,26.653 950.628,26.41 717.676,26.62 C476.664,26.837 238.547,27.248 -0,27.629 L-0,28.369 C86.447,28.271 172.883,28.182 259.171,28.189 C614.149,28.222 969.091,28.343 1323.73,28.478 C1382.75,28.501 1441.36,28.578 1500,28.659 L1500,27.526 C1105.11,27.526 723.88,27.526 342.65,27.526 C711.889,27.255 1081.94,27.125 1451.56,26.943 C1467.76,26.935 1483.89,26.92 1500,26.901 z" fill="url(#Gradient_39)"/>
      <path d="M1500,45.513 L1500,45.256 C1470.66,45.256 1441.41,45.256 1412.17,45.256 C1411.35,45.325 1410.52,45.395 1409.69,45.464 C1439.79,45.48 1469.9,45.497 1500,45.513 z" fill="url(#Gradient_40)"/>
      <path d="M892.725,49.098 L892.51,49.099 C891.937,49.104 891.424,49.11 890.851,49.115 L892.725,49.098 z" fill="url(#Gradient_41)"/>
      <path d="M1500,40.294 C1259.39,40.294 1018.96,40.294 779.112,40.294 C790.008,40.723 801.453,41.172 817.684,41.811 C530.1,41.811 264.824,41.811 -0,41.811 L-0,43.645 C170.918,43.645 341.836,43.645 512.757,43.645 C511.301,43.791 509.846,43.936 508.39,44.082 C339.828,44.082 171.258,44.082 -0,44.082 L-0,45.585 C15.389,45.585 31.232,45.585 47.582,45.585 C29.914,45.637 14.171,45.683 -0,45.724 L-0,46.341 C268.709,46.892 533.688,47.435 798.661,47.979 C794.232,48.208 789.806,48.437 785.39,48.666 C602.203,48.666 419.04,48.666 235.853,48.666 C235.136,48.725 234.432,48.784 233.716,48.844 C300.225,48.916 366.745,48.988 433.265,49.059 C432.537,49.125 431.809,49.191 431.069,49.257 C288.249,49.257 145.422,49.257 -0,49.257 L-0,49.942 C108.979,50.038 214.229,50.218 317.075,50.156 C511.242,50.041 700.909,49.472 892.51,49.099 C927.44,48.788 955.999,48.333 999.486,48.218 C1087.73,47.986 1184.45,47.948 1277.67,47.831 C1275.81,47.712 1273.93,47.592 1272.06,47.473 C1203.2,47.356 1134.34,47.24 1065.48,47.123 C1067.44,47.009 1069.38,46.894 1071.34,46.78 C1214,46.78 1356.67,46.78 1500,46.78 L1500,45.806 C1322.29,45.533 1144.58,45.26 966.883,44.987 C965.212,44.911 963.541,44.836 961.87,44.761 C1141.24,44.572 1320.62,44.382 1500,44.194 L1500,42.858 C1469.15,42.811 1438.31,42.765 1407.46,42.719 C1408.43,42.606 1409.4,42.492 1410.35,42.379 C1440.23,42.379 1470.12,42.379 1500,42.379 L1500,41.783 C1441.77,41.783 1383.54,41.783 1325.31,41.783 C1324.35,41.605 1323.39,41.426 1322.43,41.247 C1381.62,41.16 1440.81,41.071 1500,40.984 L1500,40.294 z" fill="url(#Gradient_42)"/>
      <path d="M-0,201.523 C197.151,201.662 395.437,201.665 596.582,201.328 C397.536,201.166 198.73,201.004 -0,200.839 L-0,201.523 z" fill="url(#Gradient_43)"/>
      <path d="M596.582,201.328 C599.637,201.331 602.68,201.332 605.735,201.334 C606.203,201.331 607.482,201.322 607.98,201.317 L606.32,201.331 L606.523,201.331 C607.096,201.327 607.621,201.32 608.193,201.315 C604.303,201.322 600.472,201.322 596.582,201.328 z" fill="url(#Gradient_44)"/>
      <path d="M1500,183.295 L1500,182.839 C990.799,182.839 485.356,182.839 -0,182.839 L-0,182.924 C43.628,182.958 92.236,182.996 140.858,183.034 C139.569,183.139 138.28,183.243 136.991,183.347 C91.437,183.322 45.883,183.295 -0,183.27 L-0,186.296 C327.228,186.211 667.122,185.586 748.371,184.638 C567.546,184.638 408.299,184.638 249.063,184.638 C249.792,184.469 250.531,184.3 251.271,184.131 C667.514,184.131 1083.76,184.131 1500,184.131 L1500,183.666 C1375.27,183.666 1250.53,183.666 1125.8,183.666 C1125.88,183.543 1125.97,183.419 1126.06,183.295 C1250.7,183.295 1375.35,183.295 1500,183.295 z" fill="url(#Gradient_45)"/>
      <path d="M1500,201.173 L1500,200.488 C1390.68,200.392 1285.12,200.212 1181.98,200.273 C987.803,200.389 798.124,200.958 606.523,201.331 C571.592,201.642 543.046,202.096 499.559,202.212 C411.33,202.444 314.593,202.482 221.376,202.599 C223.25,202.719 225.112,202.838 226.985,202.956 C295.845,203.074 364.704,203.19 433.575,203.306 C431.618,203.422 429.661,203.535 427.704,203.649 C285.359,203.649 143.01,203.649 -0,203.649 L-0,204.625 C177.388,204.898 354.778,205.17 532.162,205.443 C533.833,205.518 535.516,205.594 537.187,205.669 C358.124,205.858 179.062,206.046 -0,206.235 L-0,207.572 C30.527,207.619 61.055,207.665 91.582,207.711 C90.615,207.824 89.661,207.936 88.694,208.051 C59.128,208.051 29.565,208.051 -0,208.051 L-0,208.647 C57.915,208.647 115.831,208.647 173.748,208.647 C174.703,208.825 175.657,209.004 176.612,209.183 C117.741,209.27 58.871,209.358 -0,209.444 L-0,210.135 C240.289,210.135 480.4,210.135 719.932,210.135 C709.036,209.707 697.604,209.258 681.361,208.619 C969.29,208.619 1234.86,208.619 1500,208.619 L1500,206.784 C1328.76,206.784 1157.53,206.784 986.287,206.784 C987.743,206.638 989.199,206.494 990.655,206.348 C1159.53,206.348 1328.41,206.348 1500,206.348 L1500,204.844 C1484.31,204.844 1468.15,204.844 1451.46,204.844 C1469.53,204.791 1485.58,204.745 1500,204.703 L1500,204.091 C1230.96,203.539 965.671,202.995 700.384,202.452 C704.812,202.222 709.239,201.993 713.667,201.764 C896.83,201.764 1080.02,201.764 1263.19,201.764 C1263.9,201.704 1264.61,201.646 1265.33,201.585 C1198.81,201.514 1132.3,201.442 1065.78,201.371 C1066.51,201.304 1067.25,201.24 1067.98,201.173 C1211.11,201.173 1354.25,201.173 1500,201.173 z" fill="url(#Gradient_46)"/>
      <path d="M1500,178.282 L1500,177.021 C1193.19,176.82 890.61,176.621 588.025,176.422 C588.264,176.349 588.502,176.275 588.729,176.201 C653.328,176.117 717.915,176.034 782.514,175.95 C780.915,175.907 779.315,175.863 777.716,175.82 C518.475,175.708 259.239,175.598 -0,175.486 L-0,177.317 C43.381,177.317 86.759,177.317 130.141,177.317 C129.401,177.402 128.673,177.49 127.945,177.575 C85.796,177.575 43.645,177.575 -0,177.575 L-0,178.976 C222.518,178.976 445.039,178.976 667.554,178.976 C667.53,179.157 667.506,179.338 667.482,179.519 C444.991,179.519 222.495,179.519 -0,179.519 L-0,180.767 C169.22,180.767 342.755,180.767 532.568,180.767 C356.243,180.673 228.322,180.604 100.413,180.536 C101.356,180.519 102.311,180.501 103.253,180.484 C568.835,180.484 1034.42,180.484 1500,180.484 L1500,178.793 C1221.43,178.66 970.933,178.541 720.445,178.423 C718.261,178.265 716.077,178.106 713.905,177.947 C911.986,177.753 1110.33,177.412 1308.05,177.433 C1367.58,177.439 1426.46,177.829 1500,178.282 z" fill="url(#Gradient_47)"/>
      <path d="M1500,227.307 C1000,227.564 499.999,227.821 -0,228.079 L-0,228.419 C433.138,228.419 866.271,228.419 1299.41,228.419 C928.24,229.028 547.736,228.401 181.553,229.094 C182.687,229.282 183.82,229.471 184.966,229.658 C623.307,229.658 1061.65,229.658 1500,229.658 L1500,229.56 C1439.56,229.56 1379.12,229.56 1318.67,229.56 C1317.83,229.315 1316.98,229.07 1316.14,228.824 C1377.43,228.781 1438.71,228.737 1500,228.694 L1500,227.307 z" fill="url(#Gradient_48)"/>
      <path d="M1500,130.866 L1500,130.596 C1459,130.645 1418,130.694 1377,130.742 C1374.93,130.784 1372.85,130.825 1370.79,130.866 C1413.78,130.866 1456.78,130.866 1500,130.866 z" fill="url(#Gradient_49)"/>
      <path d="M1340.38,129.058 C1338.29,129.192 1336.22,129.324 1334.13,129.457 C1389.42,129.55 1444.71,129.645 1500,129.74 L1500,129.058 C1446.48,129.058 1393.43,129.058 1340.38,129.058 z" fill="url(#Gradient_50)"/>
      <path d="M1500,126.375 L1500,125.682 C999.994,125.678 499.996,125.679 -0,125.68 L-0,127.767 C297.333,127.207 596.519,127.938 884.236,127.784 C594.761,127.977 304.691,128.171 -0,128.375 L-0,131.139 C226.535,131.257 485.161,131.392 768.575,131.541 C554.944,131.757 377.784,131.936 206.769,132.11 C637.846,132.11 1068.92,132.11 1500,132.11 L1500,131.24 C1344.12,130.959 1188.51,130.753 1031.92,130.615 C709.298,130.331 383.631,130.252 59.289,130.084 C57.415,130.021 55.541,129.959 53.668,129.897 C206.352,129.809 359.035,129.721 511.719,129.632 C513.068,129.519 514.404,129.405 515.753,129.29 C375.194,129.182 234.659,129.075 94.112,128.967 C94.112,128.851 94.124,128.734 94.124,128.617 C562.752,128.617 1031.37,128.617 1500,128.617 L1500,127.209 C1445.97,127.212 1391.83,127.223 1338.79,127.208 C1126.26,127.149 913.167,127.221 700.443,127.187 C498.747,127.155 297.217,127.059 95.628,126.991 C96.607,126.785 97.597,126.58 98.587,126.375 C565.722,126.375 1032.86,126.375 1500,126.375 z" fill="url(#Gradient_51)"/>
      <path d="M1500,167.089 L1500,165.167 C1257.7,164.882 1016.9,164.613 771.522,165.201 C894.348,165.56 1009.75,165.899 1125.14,166.236 C1117.75,166.389 1110.35,166.542 1102.95,166.696 C787.824,166.189 454.305,167.346 142.636,165.582 C105.579,165.372 55.907,165.296 -0,165.287 L-0,170.675 C72.576,170.786 144.996,171.016 215.195,171.212 C271.225,171.37 319.725,171.869 372.759,171.88 C684.356,171.946 996.288,171.912 1308.1,171.912 C1307.93,172.042 1307.78,172.171 1307.61,172.3 C952.621,172.3 597.62,172.3 242.631,172.3 C241.509,172.422 240.387,172.546 239.266,172.668 C658.347,173.058 1077.44,173.448 1500,173.841 L1500,170.824 C1089.64,170.824 682.768,170.824 275.915,170.824 C276.022,170.63 276.118,170.437 276.213,170.243 C604.231,170.243 932.25,170.243 1260.27,170.243 C1260.03,170.064 1259.79,169.885 1259.55,169.706 C922.345,169.502 585.137,169.301 231.986,169.088 C260.675,168.728 278.672,168.502 304.377,168.179 C227.713,168.143 157.899,168.11 88.097,168.079 C550.868,166.673 1025.04,166.929 1500,167.089 z" fill="url(#Gradient_52)"/>
      <path d="M100.998,132.217 C136.132,132.182 171.373,132.145 206.769,132.11 C173.02,132.11 139.282,132.11 105.533,132.11 C104.029,132.145 102.514,132.182 100.998,132.217 z" fill="url(#Gradient_53)"/>
      <path d="M1500,154.529 C1450.46,154.519 1399.98,154.491 1352.14,154.495 C1177.67,154.512 998.985,154.313 830.012,154.548 C707.807,154.718 598.468,155.445 489.868,155.895 C495.214,155.928 517.83,156.069 553.56,156.291 C355.4,156.291 176.233,156.291 -0,156.291 L-0,157.873 C156.807,157.833 313.746,157.816 470.63,157.799 C624.985,157.783 779.387,157.796 982.444,157.796 C890.063,157.57 842.208,157.453 790.164,157.327 C881.403,156.395 895.489,156.252 1500,156.719 L1500,156.116 C1322.68,156.116 1145.35,156.116 968.028,156.116 C967.992,155.954 967.957,155.793 967.933,155.631 C1145.29,155.631 1322.64,155.631 1500,155.631 L1500,154.529 z" fill="url(#Gradient_54)"/>
      <path d="M1500,133.454 C1294.74,133.454 1089.48,133.454 884.228,133.454 C883.619,133.529 883.022,133.601 882.414,133.674 C1073.72,133.674 1265.03,133.674 1456.33,133.674 C1316.18,134.16 1176.69,134.275 1036.96,134.297 C691.327,134.349 345.482,134.338 -0,134.417 L-0,135.482 C169.483,135.482 341.807,135.482 523.605,135.482 C453.063,136.054 403.108,136.46 355.729,136.845 C741.993,136.575 1121.7,136.31 1500,136.045 L1500,135.207 C1213.35,135.207 926.691,135.207 640.046,135.207 C930.2,135.008 1215.97,134.785 1500,134.535 L1500,133.454 z" fill="url(#Gradient_55)"/>
      <path d="M1500,143.981 L1500,143.421 C973.572,143.823 488.749,142.368 -0,142.73 L-0,143.503 C91.387,143.503 182.824,143.494 274.208,143.494 C273.647,143.638 273.099,143.78 272.538,143.924 C181.685,143.924 90.834,143.924 -0,143.924 L-0,144.365 C283.517,144.365 552.899,144.365 822.278,144.365 C824.558,144.415 826.837,144.464 829.116,144.513 C793.314,144.587 757.512,144.663 721.71,144.736 C720.517,144.837 719.347,144.939 718.154,145.039 C858.82,145.1 999.475,145.162 1140.13,145.222 C1138.79,145.367 1137.46,145.513 1136.12,145.658 C767.923,145.658 399.714,145.658 -0,145.658 L-0,146.372 C115.794,146.372 229.744,146.372 343.688,146.372 C340.502,146.527 337.315,146.684 334.141,146.84 C222.761,146.84 111.38,146.84 -0,146.84 L-0,147.17 C511.974,147.404 1158.27,146.768 1363.69,145.848 C1344.69,145.766 1326.36,145.689 1308.05,145.611 C1312.18,145.47 1316.3,145.329 1320.43,145.189 C1380.28,145.189 1440.14,145.189 1500,145.189 L1500,144.553 C1325.23,144.438 1150.46,144.322 975.689,144.207 C976.274,144.133 976.871,144.056 977.468,143.981 C1149.4,143.981 1321.34,143.981 1500,143.981 z" fill="url(#Gradient_56)"/>
      <path d="M902.415,49.102 C1101.79,49.265 1300.93,49.427 1500,49.591 L1500,48.907 C1302.52,48.768 1103.9,48.765 902.415,49.102 z" fill="url(#Gradient_57)"/>
      <path d="M1263.59,36.015 C842.553,36.088 421.234,36.054 -0,36.068 L-0,36.737 C270.672,36.627 541.346,36.518 812.015,36.407 C813.459,36.557 814.891,36.707 816.323,36.858 C654.199,37.025 492.088,37.192 329.964,37.36 C330.907,37.453 331.838,37.545 332.769,37.638 C717.896,37.501 1103.04,37.364 1500,37.223 L1500,35.446 C1420.58,35.67 1343.07,36 1263.59,36.015 z" fill="url(#Gradient_58)"/>
      <path d="M890.862,49.115 C894.729,49.108 898.536,49.108 902.415,49.102 C899.372,49.1 896.353,49.098 893.321,49.094 C892.725,49.098 890.862,49.115 890.862,49.115 z" fill="url(#Gradient_59)"/>
      <path d="M468.422,74.717 C466.513,74.601 464.604,74.484 462.706,74.368 C308.471,74.368 154.235,74.368 -0,74.368 L-0,74.98 C43.597,74.879 87.34,74.787 131.883,74.742 C242.297,74.63 356.1,74.717 468.422,74.717 z" fill="url(#Gradient_60)"/>
      <path d="M747.297,50.621 C998.192,50.752 1249.1,50.882 1500,51.012 L1500,50.248 C1251.33,49.923 999.242,50.239 747.297,50.621 z" fill="url(#Gradient_61)"/>
      <path d="M1448.95,34.833 C965.967,34.833 482.985,34.833 0,34.833 L0,35.369 C482.974,35.369 965.947,35.369 1448.92,35.369 C1448.93,35.19 1448.95,35.011 1448.95,34.833 z" fill="url(#Gradient_62)"/>
      <path d="M774.101,29.028 C772.119,29.196 770.138,29.363 768.169,29.531 C930.938,29.739 1093.72,29.949 1256.5,30.158 C1254.11,30.275 1251.71,30.393 1249.32,30.51 C1094.45,30.788 939.565,31.065 784.686,31.342 C785.891,31.526 787.108,31.711 788.325,31.895 C981.191,32.06 1174.07,32.225 1366.93,32.388 C1368.06,32.524 1369.15,32.66 1370.28,32.796 C913.515,33.026 456.759,33.258 -0,33.489 L-0,34.063 C49.562,33.995 99.126,33.926 148.687,33.856 C129.055,34.084 102.931,34.164 77.822,34.26 C75.364,34.269 79.23,34.379 78.777,34.347 C448.839,34.347 817.23,34.347 1185.62,34.347 C1188.17,34.268 1190.74,34.188 1193.29,34.108 C1117.07,33.937 1040.85,33.767 964.639,33.595 C965.534,33.525 966.44,33.454 967.336,33.384 C1143.72,33.384 1320.11,33.384 1500,33.384 L1500,29.384 C1258.03,29.266 1016.07,29.147 774.101,29.028 z" fill="url(#Gradient_63)"/>
      <path d="M-0,68.7 L-0,69.491 C191.517,69.491 383.02,69.491 574.54,69.491 C574.73,69.311 574.934,69.133 575.137,68.954 C383.425,68.869 191.799,68.758 -0,68.7 z" fill="url(#Gradient_64)"/>
      <path d="M-0,54.839 C319.859,54.839 639.719,54.839 959.579,54.839 C960.009,54.812 960.438,54.786 960.867,54.759 C640.571,54.592 320.293,54.425 -0,54.258 L-0,54.839 z" fill="url(#Gradient_65)"/>
      <path d="M1103.6,55.801 C1105,55.994 1106.39,56.187 1107.78,56.381 C1238.52,56.331 1369.26,56.283 1500,56.233 L1500,55.535 C1367.87,55.623 1235.73,55.713 1103.6,55.801 z" fill="url(#Gradient_66)"/>
      <path d="M319.916,32.44 C321.038,32.25 322.147,32.061 323.257,31.871 C215.505,31.793 107.752,31.714 -0,31.635 L-0,32.748 C106.668,32.651 213.243,32.538 319.916,32.44 z" fill="url(#Gradient_67)"/>
      <path d="M1103.57,63.023 C790.581,63.023 477.6,63.023 164.606,63.023 C164.977,63.144 165.346,63.266 165.704,63.388 C478.483,63.388 791.262,63.388 1104.04,63.388 C1103.88,63.266 1103.73,63.144 1103.57,63.023 z" fill="url(#Gradient_68)"/>
      <path d="M1100.52,51.093 C745.041,51.093 389.563,51.093 34.084,51.093 C36.411,51.391 38.727,51.689 41.065,51.987 C394.252,51.841 747.452,51.695 1100.65,51.549 C1100.62,51.397 1100.57,51.245 1100.52,51.093 z" fill="url(#Gradient_69)"/>
      <path d="M686.672,57.511 C685.765,57.685 684.87,57.859 683.975,58.033 C923.24,58.033 1162.5,58.033 1401.77,58.033 C1401.88,58.174 1401.99,58.315 1402.09,58.455 C1228.39,58.455 1054.68,58.455 880.981,58.455 C881.507,58.584 882.056,58.712 882.581,58.842 C1054.43,58.842 1226.28,58.842 1398.14,58.842 C1398.5,58.968 1398.87,59.096 1399.23,59.223 C1290.17,59.223 1181.11,59.223 1072.04,59.223 C1073.26,59.291 1074.47,59.359 1075.68,59.427 C1217.12,59.572 1358.56,59.719 1500,59.864 L1500,57.797 C1228.89,57.702 957.775,57.606 686.672,57.511 z" fill="url(#Gradient_70)"/>
      <path d="M354.25,59.843 C239.179,59.556 120.966,59.262 -0,58.961 L-0,60.122 C120.01,60.24 248.209,60.162 354.25,59.843 z" fill="url(#Gradient_71)"/>
      <path d="M-0,29.008 L-0,30.617 C218.022,31.565 474.828,30.782 712.735,30.738 C616.333,30.738 519.93,30.738 423.515,30.738 L423.586,30.503 C472.11,30.4 520.622,30.299 569.146,30.198 C567.296,30.086 565.446,29.974 563.596,29.863 C435.043,29.863 306.478,29.863 151.813,29.863 C229.54,29.615 280.677,29.452 331.826,29.289 C218.743,29.123 108.663,29.038 -0,29.008 z" fill="url(#Gradient_72)"/>
      <path d="M1492.91,12.364 C1490.77,12.225 1488.64,12.086 1486.51,11.945 C1004.84,11.945 523.176,11.945 41.519,11.945 C40.994,11.763 40.469,11.58 39.944,11.398 C296.358,11.398 552.76,11.398 809.162,11.398 C809.066,11.269 808.972,11.139 808.876,11.011 C539.247,10.863 269.626,10.715 -0,10.566 L-0,12.364 C497.632,12.364 995.27,12.364 1492.91,12.364 z" fill="url(#Gradient_73)"/>
      <path d="M1235.18,7.597 C852.865,7.597 442.144,7.597 96.594,7.597 C442.514,8.616 853.342,9.039 1235.18,7.597 z" fill="url(#Gradient_74)"/>
      <path d="M-0,9.823 C107.712,9.661 215.425,9.499 323.138,9.338 C322.016,9.238 320.894,9.139 319.784,9.038 C214.037,9.038 108.278,9.038 -0,9.038 L-0,9.823 z" fill="url(#Gradient_75)"/>
      <path d="M1166.86,11.499 C1277.9,11.544 1389.64,11.681 1500,11.76 L1500,11.192 C1388.95,11.295 1277.91,11.397 1166.86,11.499 z" fill="url(#Gradient_76)"/>
      <path d="M875.026,2.73 C876.732,2.949 878.451,3.167 880.158,3.385 C1086.77,3.385 1293.38,3.385 1500,3.385 L1500,2.73 C1291.68,2.73 1083.35,2.73 875.026,2.73 z" fill="url(#Gradient_77)"/>
      <path d="M847.363,1.001 C797.539,1.149 757.632,1.266 672.661,1.516 C812.719,1.516 901.019,1.516 973.028,1.516 C982.528,1.123 990.416,0.796 998.316,0.47 C1033.07,0.654 1065.08,0.942 1103.1,1.002 C1210.58,1.172 1336.54,1.596 1404.97,-0 L1227.14,-0 C1060.83,0.25 908.756,0.478 756.7,0.708 C784.543,0.798 812.385,0.888 847.363,1.001 z" fill="url(#Gradient_78)"/>
      <path d="M216.042,24.681 C370.898,24.749 525.825,24.808 680.573,24.888 C837.124,24.969 993.495,25.07 1197.42,25.191 C834.725,25.191 521.278,25.191 207.832,25.191 C210.564,25.02 213.309,24.851 216.042,24.681 z M1084.38,24.567 C1083.72,24.408 1083.07,24.25 1082.42,24.091 C1133.78,23.988 1185.16,23.886 1236.52,23.783 C1235.41,23.596 1234.3,23.408 1233.18,23.223 C1007.77,23.223 727.653,22.568 568.991,23.366 C374.364,24.345 187.289,24.254 -0,24.082 L-0,26.677 C500.307,26.424 1000.11,26.105 1500,25.798 L1500,24.567 C1361.46,24.567 1222.92,24.567 1084.38,24.567" fill="url(#Gradient_79)"/>
      <path d="M1442.62,4.819 C1135.13,4.876 827.052,4.982 520.097,4.89 C346.125,4.838 172,4.409 -0,4.332 L-0,6.134 C503.379,6.134 1002.15,6.134 1500,6.134 L1500,4.789 C1480.84,4.804 1461.7,4.815 1442.62,4.819 z" fill="url(#Gradient_80)"/>
      <path d="M199.633,22.011 C570.805,21.402 951.32,22.029 1317.49,21.336 C1316.36,21.148 1315.22,20.96 1314.09,20.772 C876.054,20.772 438.028,20.772 -0,20.772 L-0,20.87 C60.125,20.87 120.246,20.87 180.371,20.87 C181.219,21.114 182.066,21.36 182.913,21.606 C121.939,21.649 60.97,21.692 -0,21.736 L-0,23.123 C499.999,22.865 1000,22.609 1500,22.351 L1500,22.011 C1066.54,22.011 633.082,22.011 199.633,22.011 z" fill="url(#Gradient_81)"/>
      <path d="M430.831,20.074 C433.169,19.942 435.509,19.809 437.848,19.676 C295.327,19.529 152.81,19.383 -0,19.225 L-0,20.073 C143.61,20.073 287.231,20.074 430.831,20.074 z" fill="url(#Gradient_82)"/>
      <path d="M-0,23.493 L-0,23.89 C41.237,23.89 82.474,23.89 123.709,23.89 C122.957,23.757 122.205,23.626 121.453,23.493 C80.967,23.493 40.485,23.493 -0,23.493 z" fill="url(#Gradient_83)"/>
      <path d="M776.439,14.957 C775.95,15.016 775.461,15.076 774.96,15.136 C910.387,15.382 1045.8,15.629 1181.22,15.875 C1181.5,15.987 1181.79,16.099 1182.08,16.211 C788.058,16.211 394.028,16.211 -0,16.211 L-0,16.729 C9.323,16.736 18.632,16.744 27.914,16.753 C160.024,16.888 288.147,17.25 418.717,17.489 C450.14,17.547 494.666,17.623 515.633,17.504 C697.591,16.475 1177.4,16.374 1338.88,17.247 C1014.01,17.64 669.535,18.059 325.059,18.477 C328.58,18.67 332.088,18.864 335.609,19.057 C723.719,19.191 1111.78,19.344 1500,19.435 L1500,14.957 C1265.86,14.957 1021.16,14.957 776.439,14.957 z" fill="url(#Gradient_84)"/>
      <path d="M-0,15.381 C187.99,15.276 377.609,15.14 572.249,15.019 C381.25,14.873 194.89,14.731 -0,14.582 L-0,15.381 z" fill="url(#Gradient_85)"/>
      <path d="M-0,12.754 L-0,13.664 C40.399,13.67 80.646,13.685 120.594,13.721 C278.815,13.864 434.231,14.411 590.71,14.407 C893.852,14.4 1196.94,14.283 1500,14.162 L1500,13.467 C994.369,13.227 496.686,12.99 -0,12.754 z" fill="url(#Gradient_86)"/>
      <path d="M-0,19.033 C22.282,18.938 43.774,18.846 79.946,18.69 C51.533,18.68 24.926,18.67 -0,18.663 L-0,19.033 z" fill="url(#Gradient_87)"/>
      <path d="M1058.73,141.159 C705.821,141.159 352.91,141.159 -0,141.159 L-0,142.092 C354.06,141.901 708.129,141.709 1062.19,141.519 C1061.04,141.399 1059.88,141.278 1058.73,141.159 z" fill="url(#Gradient_88)"/>
      <path d="M115.737,154.731 C75.924,154.581 48.035,154.476 -0,154.295 L-0,154.731 C37.629,154.731 76.127,154.731 115.737,154.731 z" fill="url(#Gradient_89)"/>
      <path d="M924.517,180.94 C924.314,181.118 924.111,181.297 923.908,181.476 C1115.94,181.561 1307.88,181.672 1500,181.73 L1500,180.94 C1308.17,180.94 1116.33,180.94 924.517,180.94 z" fill="url(#Gradient_90)"/>
      <path d="M158.663,121.371 C160.751,121.238 162.828,121.106 164.917,120.973 C109.946,120.88 54.971,120.786 -0,120.692 L-0,121.371 C53.202,121.371 105.935,121.371 158.663,121.371 z" fill="url(#Gradient_91)"/>
      <path d="M-0,148.042 L-0,149.85 C377.514,149.85 746.752,149.85 1115.99,149.85 C982.134,149.559 847.16,149.615 713.356,149.542 C589.147,149.475 466.167,149.269 342.65,149.124 C344.213,148.971 345.789,148.818 347.364,148.664 C726.322,148.664 1105.3,148.664 1500,148.664 L1500,148.042 C999.321,148.042 498.891,148.042 -0,148.042 z" fill="url(#Gradient_92)"/>
      <path d="M-0,137.429 L-0,140.188 C173.162,140.188 346.323,140.188 519.488,140.188 C520.097,140.155 520.693,140.123 521.314,140.092 C410.375,140.092 299.437,140.092 188.498,140.092 C259.422,139.576 336.754,139.4 415.603,139.334 C580.077,139.199 745.339,139.121 910.279,139.02 C617.789,139.02 325.298,139.02 11.827,139.02 C130.272,138.079 435.449,137.922 1172.51,138.271 C1077.61,138.553 990.799,138.81 903.633,139.069 C1102.26,139.039 1301.13,138.982 1500,138.964 L1500,137.429 C992.182,137.429 494.143,137.429 -0,137.429 z" fill="url(#Gradient_93)"/>
      <path d="M1028.61,139.814 C1026.86,139.936 1025.12,140.057 1023.38,140.18 C1182.26,140.18 1341.13,140.18 1500,140.18 L1500,139.814 C1342.87,139.814 1185.74,139.814 1028.61,139.814 z" fill="url(#Gradient_94)"/>
      <path d="M1366.79,141.028 C1241.94,141.572 1157,141.942 1072.53,142.311 C1208.52,142.423 1346.51,142.536 1500,142.662 L1500,141.028 C1451.31,141.028 1406.21,141.028 1366.79,141.028 z" fill="url(#Gradient_95)"/>
      <path d="M279.793,155.966 C278.493,155.901 277.192,155.838 275.891,155.772 C184.129,155.772 92.36,155.772 -0,155.772 L-0,155.966 C93.266,155.966 186.532,155.966 279.793,155.966 z" fill="url(#Gradient_96)"/>
      <path d="M529.895,174.312 C874.677,175.653 1191.13,175.049 1500,174.616 L1500,174.312 C1190.95,174.312 874.271,174.312 529.895,174.312 z" fill="url(#Gradient_97)"/>
      <path d="M1367.16,175.688 C1256.75,175.8 1142.95,175.713 1030.63,175.713 C1032.53,175.829 1034.44,175.946 1036.34,176.061 C1190.89,176.061 1345.45,176.061 1500,176.061 L1500,175.448 C1456.09,175.55 1412.03,175.643 1367.16,175.688 z" fill="url(#Gradient_98)"/>
      <path d="M1156.78,161.716 C1127.17,160.959 1101.5,160.302 1096.34,160.171 C875.683,160.171 712.187,160.25 551.483,160.121 C505.681,160.084 467.957,159.443 380.528,158.676 C220.301,158.636 96.44,158.607 -0,158.593 L-0,158.949 C110.125,158.91 214.274,159.1 304.175,159.917 C202.77,160.048 101.383,160.178 -0,160.309 L-0,161.648 C254.909,160.623 528.133,160.81 802.109,160.935 C869.919,160.967 936.45,161.166 1057.89,161.388 C807.647,161.71 623.839,161.946 440.032,162.182 C443.982,162.348 447.92,162.513 451.87,162.677 C640.344,162.677 828.806,162.677 1017.28,162.677 C1016.93,162.628 1016.6,162.579 1016.27,162.529 C968.982,162.451 921.712,162.372 815.082,162.195 C1064.1,162.106 1286.82,162.026 1500,161.95 L1500,161.487 C1383.98,161.564 1269.17,161.641 1156.78,161.716 z" fill="url(#Gradient_99)"/>
      <path d="M482.887,154.035 C481.622,153.895 480.356,153.754 479.092,153.614 C319.392,153.713 159.697,153.812 -0,153.912 L-0,154.035 C195.645,154.035 339.267,154.035 482.887,154.035 z" fill="url(#Gradient_100)"/>
      <path d="M-0,151.132 C8.187,151.045 16.759,150.953 25.814,150.857 C18.096,150.857 9.411,150.862 -0,150.868 L-0,151.132 z" fill="url(#Gradient_101)"/>
      <path d="M1070.47,158.013 C1069.9,158.109 1069.31,158.206 1068.74,158.303 C1212.49,158.476 1356.25,158.648 1500,158.82 L1500,157.686 C1356.77,157.781 1213.67,157.91 1070.47,158.013 z" fill="url(#Gradient_102)"/>
      <path d="M-0,153.306 C322.899,153.153 645.799,152.999 968.708,152.844 C969.03,152.646 969.365,152.447 969.687,152.249 C646.451,152.249 323.225,152.249 -0,152.249 L-0,152.459 C47.253,152.587 94.504,152.714 141.765,152.842 L141.813,153.058 C94.54,153.058 47.271,153.058 -0,153.058 L-0,153.306 z" fill="url(#Gradient_103)"/>
      <path d="M1016.17,96.394 C1017.44,96.535 1018.7,96.676 1019.95,96.815 C1179.97,96.717 1339.98,96.617 1500,96.518 L1500,96.394 C1303.87,96.394 1160.01,96.394 1016.17,96.394 z" fill="url(#Gradient_104)"/>
      <path d="M1383.31,95.699 C1423.38,95.85 1451.38,95.955 1500,96.138 L1500,95.699 C1462.07,95.699 1423.25,95.699 1383.31,95.699 z" fill="url(#Gradient_105)"/>
      <path d="M1219.25,94.463 C1220.55,94.527 1221.87,94.592 1223.15,94.657 C1315.23,94.657 1407.32,94.657 1500,94.657 L1500,94.463 C1406.42,94.463 1312.83,94.463 1219.25,94.463 z" fill="url(#Gradient_106)"/>
      <path d="M1473.24,99.574 C1481.22,99.574 1490.23,99.568 1500,99.561 L1500,99.288 C1491.53,99.378 1482.65,99.473 1473.24,99.574 z" fill="url(#Gradient_107)"/>
      <path d="M969.149,76.118 C624.722,74.778 308.569,75.38 -0,75.813 L-0,76.118 C308.752,76.118 625.129,76.118 969.149,76.118 z" fill="url(#Gradient_108)"/>
      <path d="M1283.85,79.217 C1227.83,79.06 1179.33,78.561 1126.29,78.55 C814.7,78.484 502.769,78.518 190.957,78.518 C191.112,78.388 191.267,78.259 191.434,78.13 C546.423,78.13 901.424,78.13 1256.43,78.13 C1257.54,78.007 1258.66,77.885 1259.78,77.762 C841.013,77.372 422.239,76.983 -0,76.59 L-0,79.606 C410.033,79.606 816.583,79.606 1223.13,79.606 C1223.03,79.8 1222.93,79.993 1222.83,80.187 C894.813,80.187 566.794,80.187 238.788,80.187 C239.015,80.365 239.253,80.545 239.48,80.724 C576.688,80.927 913.907,81.129 1267.06,81.342 C1238.37,81.702 1220.37,81.928 1194.68,82.251 C1271.34,82.287 1341.15,82.319 1410.95,82.351 C948.487,83.754 474.64,83.501 -0,83.341 L-0,85.264 C241.983,85.548 482.479,85.815 727.522,85.228 C604.697,84.87 489.295,84.531 373.905,84.194 C381.304,84.041 388.703,83.887 396.103,83.734 C711.232,84.24 1044.74,83.084 1356.41,84.848 C1393.68,85.059 1443.71,85.135 1500,85.143 L1500,79.756 C1427.1,79.646 1354.36,79.414 1283.85,79.217 z" fill="url(#Gradient_109)"/>
      <path d="M-0,119.564 L-0,119.833 C40.684,119.785 81.368,119.736 122.05,119.688 C124.114,119.646 126.179,119.605 128.255,119.564 C85.577,119.564 42.896,119.564 -0,119.564 z" fill="url(#Gradient_110)"/>
      <path d="M-0,91.611 L-0,92.744 C142.915,92.649 285.699,92.52 428.587,92.417 C429.16,92.321 429.732,92.224 430.305,92.127 C286.873,91.955 143.437,91.782 -0,91.611 z" fill="url(#Gradient_111)"/>
      <path d="M1028.41,92.631 C874.06,92.647 719.658,92.634 516.612,92.634 C608.981,92.859 656.837,92.977 708.881,93.104 C617.689,94.034 603.571,94.178 -0,93.712 L-0,94.314 C177.007,94.314 354.017,94.314 531.017,94.314 C531.052,94.476 531.088,94.637 531.112,94.799 C354.075,94.799 177.037,94.799 -0,94.799 L-0,95.901 C49.236,95.911 99.368,95.939 146.908,95.935 C321.372,95.916 500.06,96.117 669.033,95.882 C791.237,95.712 900.577,94.986 1009.18,94.535 C1003.83,94.502 981.216,94.362 945.496,94.14 C1144.01,94.14 1323.46,94.14 1500,94.14 L1500,92.556 C1342.87,92.597 1185.62,92.614 1028.41,92.631 z" fill="url(#Gradient_112)"/>
      <path d="M979.557,110.242 C978.948,110.274 978.339,110.307 977.742,110.338 C1088.67,110.338 1199.61,110.338 1310.53,110.338 C1239.62,110.854 1162.29,111.03 1083.44,111.094 C918.967,111.23 753.705,111.309 588.765,111.409 C881.256,111.409 1173.75,111.409 1487.22,111.409 C1368.77,112.351 1063.6,112.508 326.539,112.158 C421.426,111.877 508.247,111.62 595.424,111.36 C397.1,111.391 198.553,111.448 -0,111.466 L-0,113.001 C507.811,113.001 1005.85,113.001 1500,113.001 L1500,110.242 C1326.52,110.242 1153.04,110.242 979.557,110.242 z" fill="url(#Gradient_113)"/>
      <path d="M383.059,100.579 C516.911,100.871 651.884,100.815 785.688,100.887 C909.909,100.955 1032.88,101.161 1156.39,101.305 C1154.82,101.459 1153.26,101.613 1151.69,101.766 C773.021,101.766 394.36,101.766 -0,101.766 L-0,102.387 C500.677,102.387 1001.11,102.387 1500,102.387 L1500,100.579 C1122.16,100.579 752.603,100.579 383.059,100.579 z" fill="url(#Gradient_114)"/>
      <path d="M470.439,110.616 C472.182,110.494 473.924,110.373 475.667,110.25 C317.113,110.25 158.557,110.25 -0,110.25 L-0,110.616 C156.813,110.616 313.626,110.616 470.439,110.616 z" fill="url(#Gradient_115)"/>
      <path d="M975.439,114.948 C1045.98,114.376 1095.94,113.969 1143.32,113.585 C757.378,113.855 377.982,114.12 -0,114.385 L-0,115.222 C286.333,115.222 572.669,115.222 858.999,115.222 C569.172,115.422 283.72,115.644 -0,115.893 L-0,116.975 C204.943,116.975 409.886,116.975 614.829,116.975 C615.426,116.901 616.022,116.828 616.631,116.755 C425.317,116.755 234.015,116.755 42.712,116.755 C182.865,116.271 322.35,116.155 462.085,116.133 C808.044,116.08 1154.2,116.092 1500,116.013 L1500,114.948 C1330.21,114.948 1157.58,114.948 975.439,114.948 z" fill="url(#Gradient_116)"/>
      <path d="M-0,107.768 L-0,109.403 C48.318,109.403 93.09,109.403 132.241,109.403 C257.119,108.858 342.042,108.488 426.51,108.121 C290.804,108.008 153.105,107.894 -0,107.768 z" fill="url(#Gradient_117)"/>
      <path d="M436.857,108.91 C438.015,109.031 439.16,109.152 440.318,109.271 C793.542,109.271 1146.77,109.271 1500,109.271 L1500,108.337 C1145.62,108.529 791.234,108.72 436.857,108.91 z" fill="url(#Gradient_118)"/>
    </g>
  </g>
</svg>
